<?xml version="1.0" encoding="utf-8"?>
<!-- Generator: Adobe Illustrator 26.5.0, SVG Export Plug-In . SVG Version: 6.00 Build 0)  -->
<svg version="1.1" id="Camada_1" xmlns="http://www.w3.org/2000/svg" xmlns:xlink="http://www.w3.org/1999/xlink" x="0px" y="0px"
	 viewBox="0 0 198.4 198.4" style="enable-background:new 0 0 198.4 198.4;" xml:space="preserve">
<style type="text/css">
	.st0{fill-rule:evenodd;clip-rule:evenodd;fill:#FFFFFF;}
	.st1{fill:#FFFFFF;}
</style>
<path class="st0" d="M134.8,150.9c0.1,0.1,0.3,0.2,0.4,0.3c0.1,0.1,0.3,0.1,0.4,0.1c0.1,0,0.2,0,0.2-0.1c0.1,0,0.1-0.1,0.1-0.2
	c0-0.1-0.1-0.2-0.3-0.4c-0.1,0-0.1,0-0.1-0.1c-0.2-0.2-0.4-0.3-0.5-0.5c-0.1-0.1-0.1-0.4-0.1-0.6c0-0.4,0.1-0.7,0.4-0.9
	c0.2-0.2,0.6-0.4,1-0.4c0.2,0,0.4,0,0.6,0.1c0.2,0,0.4,0.1,0.5,0.2l-0.2,1c-0.1-0.1-0.2-0.2-0.4-0.2c-0.1-0.1-0.2-0.1-0.3-0.1
	s-0.2,0-0.2,0.1c-0.1,0-0.1,0.1-0.1,0.2c0,0.1,0.1,0.2,0.2,0.3c0.1,0,0.1,0.1,0.1,0.1c0.3,0.2,0.5,0.4,0.6,0.6
	c0.1,0.2,0.1,0.4,0.1,0.6c0,0.4-0.1,0.7-0.4,0.9c-0.3,0.2-0.6,0.4-1.1,0.4c-0.2,0-0.4,0-0.6-0.1c-0.2-0.1-0.4-0.2-0.6-0.3
	L134.8,150.9L134.8,150.9z M132.7,152.3l0.1-0.4c-0.1,0.2-0.3,0.3-0.5,0.4c-0.1,0.1-0.3,0.1-0.5,0.1c-0.3,0-0.5-0.1-0.7-0.4
	s-0.2-0.6-0.2-1c0-0.8,0.1-1.4,0.4-2c0.3-0.5,0.7-0.8,1.1-0.8c0.2,0,0.3,0,0.4,0.1c0.1,0.1,0.2,0.2,0.4,0.4l0.1-0.4h1.3l-0.6,3.9
	L132.7,152.3L132.7,152.3z M132.7,149.5c-0.1,0-0.2,0.1-0.3,0.4c-0.1,0.2-0.1,0.5-0.1,0.9c0,0.1,0,0.3,0.1,0.4
	c0,0.1,0.1,0.1,0.2,0.1c0.1,0,0.2-0.1,0.3-0.4c0.1-0.2,0.1-0.5,0.1-0.9c0-0.1,0-0.3-0.1-0.3C132.9,149.6,132.8,149.5,132.7,149.5
	L132.7,149.5z M128.6,152.3l0.4-2.6h-0.5l0.2-1.2h0.5l0.2-1.1h1.4l-0.2,1.1h0.5l-0.2,1.2h-0.5l-0.4,2.6H128.6L128.6,152.3z
	 M124.8,152.3l0.6-3.9h1.2l-0.1,0.4c0.1-0.1,0.3-0.3,0.4-0.4c0.2-0.1,0.3-0.1,0.5-0.1c0.3,0,0.5,0.1,0.7,0.2
	c0.1,0.1,0.2,0.4,0.2,0.6v0.2c0,0.1,0,0.2,0,0.3l-0.4,2.5h-1.3l0.3-2.3c0,0,0,0,0,0v-0.1c0-0.1,0-0.1-0.1-0.2c0,0-0.1-0.1-0.2-0.1
	s-0.1,0-0.2,0.1c0,0.1-0.1,0.1-0.1,0.3l-0.3,2.3L124.8,152.3L124.8,152.3z M125.1,146.9c0,0.3-0.1,0.5-0.2,0.7
	c-0.2,0.2-0.3,0.3-0.6,0.3c-0.2,0-0.3-0.1-0.4-0.2c-0.1-0.1-0.2-0.3-0.2-0.5c0-0.3,0.1-0.5,0.2-0.7c0.2-0.2,0.3-0.3,0.6-0.3
	c0.2,0,0.3,0.1,0.4,0.2C125,146.6,125.1,146.7,125.1,146.9L125.1,146.9z M122.9,152.3l0.6-3.9h1.3l-0.6,3.9H122.9z M133.3,144.4
	l1.4-11.2c0.1-0.6,0.4-1,1.1-1h2.4c0.6,0,0.8,0.2,0.8,0.7l-0.1,0.6c-0.1,0.3,0,0.4,0.2,0.1c0.4-0.5,0.9-0.9,1.4-1.2
	c0.5-0.3,1.1-0.5,1.7-0.6c0.3-0.1,0.4,0.1,0.3,0.4l-0.4,3.6c0,0.3-0.2,0.5-0.5,0.5c-1,0-1.7,0.2-2.2,0.6c-0.5,0.4-0.8,1.2-1,2.3
	l-0.6,5.1c-0.1,0.4-0.2,0.6-0.6,0.6h-3.6C133.4,145,133.2,144.8,133.3,144.4L133.3,144.4z M121.5,138.6c0.3-2.2,1-3.8,2.2-5
	s2.7-1.8,4.6-1.8s3.3,0.6,4.2,1.8c0.9,1.2,1.2,2.9,0.9,5c-0.3,2.2-1,3.8-2.2,5c-1.2,1.2-2.7,1.8-4.6,1.8s-3.3-0.6-4.2-1.8
	C121.6,142.4,121.3,140.8,121.5,138.6L121.5,138.6z M126.4,138.5c-0.1,0.9-0.1,1.6,0,2.1c0.1,0.5,0.4,0.7,0.8,0.7s0.7-0.2,0.9-0.7
	c0.2-0.5,0.4-1.2,0.6-2.1c0.1-0.9,0.1-1.6,0-2.1c-0.1-0.5-0.4-0.7-0.8-0.7s-0.7,0.2-0.9,0.7C126.7,136.9,126.5,137.6,126.4,138.5
	L126.4,138.5z M115.5,144.2l2.3-18.4c0.1-0.5,0.3-0.8,0.8-0.8h3.1c0.5,0,0.8,0.2,0.8,0.8l-2.3,18.4c0,0.5-0.3,0.8-0.9,0.8h-3.1
	C115.6,145,115.4,144.7,115.5,144.2L115.5,144.2z M103.5,138.6c0.3-2.2,1-3.8,2.2-5c1.2-1.2,2.7-1.8,4.6-1.8s3.3,0.6,4.2,1.8
	c0.9,1.2,1.2,2.9,0.9,5s-1,3.8-2.2,5c-1.2,1.2-2.7,1.8-4.6,1.8s-3.3-0.6-4.2-1.8C103.6,142.4,103.3,140.8,103.5,138.6L103.5,138.6z
	 M108.3,138.5c-0.1,0.9-0.1,1.6,0,2.1c0.1,0.5,0.4,0.7,0.8,0.7s0.7-0.2,0.9-0.7c0.2-0.5,0.4-1.2,0.6-2.1c0.1-0.9,0.1-1.6,0-2.1
	c-0.1-0.5-0.4-0.7-0.8-0.7s-0.7,0.2-0.9,0.7C108.6,136.9,108.4,137.6,108.3,138.5L108.3,138.5z M100.1,145.4c-1.6,0-2.9-0.6-3.7-1.8
	c-0.8-1.2-1.1-2.9-0.8-5c0.2-2.1,0.9-3.7,2.1-4.9c1.1-1.2,2.5-1.9,4.2-1.9c0.4,0,0.9,0,1.2,0.1c0.1,0,0.2,0.1,0.3,0.1
	c0.6,0.1,0.7,0.5,0.7,1l-0.3,2.4c-0.1,0.5-0.4,0.6-0.9,0.5h-0.2c-0.5,0-0.9,0.2-1.2,0.7c-0.3,0.5-0.6,1.1-0.7,1.9
	c-0.1,0.8,0,1.4,0.2,1.9c0.2,0.4,0.6,0.6,1.1,0.6c0.1,0,0.2,0,0.4,0c0.4-0.1,0.7,0.1,0.6,0.5l-0.3,2.5
	C102.6,145.3,101.1,145.4,100.1,145.4L100.1,145.4z M89.6,144.2l1.4-11.4c0.1-0.5,0.3-0.7,0.7-0.7H95c0.6,0,0.8,0.2,0.7,0.9
	l-1.4,11.2c-0.1,0.5-0.3,0.8-0.9,0.8h-3.1C89.7,145,89.5,144.7,89.6,144.2L89.6,144.2z M91.2,127.8c0.1-0.8,0.4-1.4,1.1-2
	c0.6-0.5,1.3-0.8,2.1-0.8s1.4,0.3,1.9,0.8c0.5,0.5,0.6,1.2,0.6,2c-0.1,0.8-0.4,1.4-1.1,2c-0.6,0.5-1.3,0.8-2.1,0.8s-1.4-0.3-1.9-0.8
	C91.3,129.2,91.1,128.6,91.2,127.8L91.2,127.8z M82.1,141c0.2,0.2,0.5,0.3,0.7,0.4c0.4,0.2,0.8,0.3,1.2,0.3c0.3,0,0.5-0.1,0.7-0.2
	c0.2-0.1,0.3-0.3,0.3-0.6c0-0.3-0.4-0.7-1.2-1.1c-0.5-0.2-0.8-0.4-1.1-0.6c-0.8-0.4-1.3-0.9-1.6-1.5c-0.3-0.6-0.4-1.2-0.3-1.9
	c0.2-1.2,0.7-2.2,1.7-2.9c1-0.8,2.2-1.2,3.6-1.2c0.7,0,1.4,0.1,2.1,0.3c0.4,0.1,0.9,0.3,1.4,0.6c0.4,0.2,0.6,0.6,0.3,1l-1.4,1.8
	c-0.2,0.3-0.6,0.3-1,0c-0.1-0.1-0.2-0.1-0.4-0.2c-0.3-0.1-0.6-0.2-0.9-0.2c-0.3,0-0.5,0.1-0.7,0.2c-0.2,0.1-0.3,0.3-0.3,0.5
	c0,0.4,0.3,0.7,1,1.1c0.4,0.2,0.7,0.3,0.9,0.5c1,0.6,1.6,1.1,2,1.7c0.4,0.6,0.5,1.3,0.4,2.1c-0.2,1.2-0.7,2.3-1.7,3.1
	c-1,0.8-2.2,1.3-3.6,1.3c-0.9,0-1.7-0.1-2.5-0.5c-0.6-0.2-1.3-0.6-1.9-1c-0.4-0.3-0.4-0.6-0.2-0.8l1.6-2.1
	C81.4,140.7,81.7,140.7,82.1,141L82.1,141z M79.4,141.1c-0.4,1.2-1.1,2.2-2,3c-1.1,0.9-2.4,1.3-3.9,1.3c-1.8,0-3.1-0.6-4-1.8
	c-0.8-1.2-1.1-2.8-0.9-5c0.3-2.2,1-3.9,2.1-5.1c1.1-1.2,2.6-1.8,4.4-1.8c1.9,0,3.3,0.5,4.1,1.6c0.8,1.1,1.1,2.7,0.8,4.8
	c0,0.2,0,0.3-0.1,0.4c0,0.3-0.2,0.5-0.5,0.5h-6.1c-0.2,0-0.3,0.1-0.3,0.3c-0.1,0.9-0.1,1.5,0.1,1.9c0.2,0.4,0.5,0.6,1,0.6
	c0.4,0,0.7-0.1,0.9-0.4c0.2-0.2,0.3-0.4,0.5-0.7c0.1-0.3,0.2-0.4,0.6-0.4h3C79.3,140.5,79.5,140.7,79.4,141.1L79.4,141.1z M73.7,137
	h2.1c0.2,0,0.3-0.1,0.3-0.4c0-0.6,0-1-0.2-1.3c-0.2-0.4-0.5-0.5-1-0.5c-0.3,0-0.7,0.2-0.9,0.5c-0.2,0.3-0.4,0.7-0.6,1.2
	C73.4,136.8,73.4,137,73.7,137L73.7,137z M55.8,144.3l2.3-18.7c0-0.3,0.2-0.5,0.6-0.5H64c2,0,3.5,0.6,4.5,1.5
	c2.7,2.5,0.9,8.6-2.1,10c-0.3,0.1-0.5,0.4-0.3,0.8l2.4,7.6h-5.4l-1.3-6.5c-0.1-0.4-0.2-0.4-0.2,0l-0.7,5.8c0,0.4-0.2,0.7-0.6,0.7h-4
	C55.9,145,55.7,144.7,55.8,144.3L55.8,144.3z M62.7,129.3l-0.5,3.8c0,0.2,0.1,0.3,0.3,0.2c0.5-0.1,1-0.2,1.3-0.5
	c0.4-0.4,0.6-0.9,0.7-1.6c0.1-0.7,0-1.3-0.2-1.6c-0.2-0.4-0.6-0.5-1.2-0.6C62.8,129,62.7,129.1,62.7,129.3L62.7,129.3z M121.5,152.3
	H120l0.6-4.1h-0.9l0.2-1.4h3.2l-0.2,1.4h-0.9L121.5,152.3z"/>
<g>
	<path class="st1" d="M23.8,116.9c-0.1-0.3-0.3-0.3-0.5-0.2c-0.6,0.1-0.7,0-0.9-0.4c-0.1-0.2-0.1-0.3-0.2-0.5
		c-0.1-0.3-0.2-0.5-0.4-0.6c-0.6-0.5-0.7-1.2-0.7-1.9c0-0.4,0.1-0.8,0.3-1.2c0.2-0.7,0.5-1.4,0.8-2.2c0.9-2.8,2.1-5.4,3.2-8.1
		c0.5-1.1,1-2.1,1.5-3.2c0.2-0.4,0.4-0.9,0.6-1.4c0.4-0.9,0.9-1.7,1.3-2.6c0.3-0.4,0.4-0.9,0.6-1.3c0.3-0.6,0.6-1.2,1-1.7
		c0.2-0.3,0.1-0.5-0.3-0.5C30.1,91,30,91,29.8,91c0.3-0.2,0.5-0.3,0.7-0.4c0,0,0.1-0.1,0.1-0.1c0-0.1-0.1-0.1-0.2-0.1
		c-0.5,0.2-1,0.3-1.5,0.6c-0.3,0.1-0.6,0.2-0.9,0.3c-0.4,0.1-0.4,0.1-0.5-0.3c0-0.1-0.1-0.1-0.2-0.2c-0.5-0.2-0.6-0.2-0.5-0.8
		c0-0.3,0-0.4-0.1-0.7c-0.1-0.3-0.1-0.5,0-0.8c0.2-0.5,0.5-0.9,0.9-1.3c0.5-0.3,1-0.7,1.5-1c0.2-0.1,0.4-0.2,0.6-0.4
		c0.4-0.4,1-0.6,1.5-0.8c0.3-0.2,0.6-0.2,0.9-0.3c1.1-0.6,2.4-0.9,3.6-1.3c1.8-0.5,3.6-0.7,5.4-0.5c0.4,0,0.8,0,1.2,0
		c0.2,0,0.4,0.1,0.6,0.1c2.5,0.7,4.3,2.2,5.3,4.5c0.6,1.6,1,3.2,1.1,4.9c0.1,1.5-0.2,3-1,4.2c-0.1,0.1-0.1,0.2-0.1,0.2
		c-0.7,0.7-1.2,1.6-1.9,2.2c-0.5,0.4-0.9,0.9-1.5,1.3c-0.7-0.1-1.1,0.4-1.5,0.7c0,0.1,0,0.1,0,0.2c0,0,0.1,0,0.2,0
		c0.2-0.1,0.3-0.2,0.5-0.3c0.3-0.2,0.5-0.3,0.7-0.4c-0.3,0.5-0.8,0.7-1.2,1c-0.2,0.1-0.3,0.2-0.5,0.2c-0.3-0.1-0.6,0.1-0.9,0.3
		c-0.1,0.1-0.2,0.1-0.3,0.2c-1.2,1-2.6,1.8-3.8,2.7c0,0.1-0.1,0.1-0.2,0.1c-2.3,1.2-4.6,2.6-7.2,3.2c-0.5,0.2-1,0.4-1.6,0.6
		c-0.4,0.1-0.5,0.4-0.7,0.7c0,0,0-0.1-0.1-0.1c0,0,0,0,0,0c0,0.1,0.1,0,0.2,0.1c-0.2,0.7-0.5,1.3-0.9,1.9c0,0,0-0.2-0.1-0.1
		c0,0,0,0.1-0.1,0.1c0,0.1-0.1,0.2-0.1,0.3c0,0.1-0.1,0.1-0.2,0.2c0,0.1-0.1,0.1-0.2,0.2v0.1c0,0,0.1-0.1,0.1-0.1
		c0-0.1,0-0.1,0.1-0.2c0-0.1,0.1-0.1,0.2-0.2c0-0.1,0.1-0.2,0.1-0.4c0.1,0,0.1,0,0.2,0c-0.2,0.8-0.5,1.4-1.1,2
		c-0.2,0.2-0.3,0.4-0.4,0.6c0,0.1,0,0.2,0.2,0.3v0c-0.1,0.4-0.2,0.7-0.5,0.9c-0.2,0.1-0.1,0.3,0,0.4h0c0,0.3-0.2,0.6-0.3,0.8v0
		c-0.4-0.1-0.6,0.1-0.9,0.2C24,117.2,23.9,117.1,23.8,116.9L23.8,116.9z M25.1,116.8L25.1,116.8L25.1,116.8z M25.5,115.9L25.5,115.9
		L25.5,115.9L25.5,115.9z M25.9,114.6c0-0.1,0.1-0.2,0.2-0.3C26.1,114.3,26,114.5,25.9,114.6L25.9,114.6z M26.1,114.2L26.1,114.2
		L26.1,114.2z M28.7,90.6c0.4-0.2,0.8-0.3,1.2-0.5c0.5-0.2,1-0.4,1.5-0.6c0.1-0.1,0.3-0.2,0.4-0.3v-0.1c0,0,0,0-0.1,0
		c-0.1,0-0.3,0-0.4,0.1c-1,0.4-2,0.8-2.9,1.4c0,0-0.1,0.1-0.1,0.1v0.1c0,0,0,0,0.1,0.1C28.4,90.7,28.5,90.7,28.7,90.6L28.7,90.6z
		 M30.2,107.9c1.5-0.3,2.8-1,4-1.7c0.2-0.1,0.3-0.3,0.4-0.4c0.1-0.1,0.2-0.1,0.3-0.2c0.2,0,0.3-0.1,0.5-0.1c0.3-0.1,0.4-0.3,0.3-0.3
		c-0.2-0.1-0.3,0-0.4,0.1c-0.1,0.1-0.3,0.2-0.4,0.4c-0.1,0.1-0.2,0.1-0.3,0.2c-0.2,0.1-0.5,0.2-0.7,0.2c-1.4,0.6-2.7,1.1-4.1,1.5
		c-0.1,0-0.2,0.1-0.3,0.2c0,0.1-0.1,0.1-0.1,0.2c0,0.1,0,0.1,0.1,0.2C29.8,108,30,108,30.2,107.9L30.2,107.9z M29.3,91.2L29.3,91.2
		C29.3,91.2,29.2,91.2,29.3,91.2C29.3,91.2,29.3,91.2,29.3,91.2z M29.8,91c-0.2,0.1-0.4,0.1-0.5,0.2C29.5,91.1,29.6,91.1,29.8,91z
		 M30.1,108.9c0,0,0.1-0.1,0.2-0.1c0,0,0,0,0.1,0C30.3,109,30.2,109,30.1,108.9C30.1,109,30.1,108.9,30.1,108.9z M30.9,105.3
		L30.9,105.3L30.9,105.3c-0.1,0-0.2,0-0.3,0c0,0,0,0.1-0.1,0.1c0,0.1,0,0.1,0.1,0.1C30.8,105.4,30.9,105.3,30.9,105.3L30.9,105.3z
		 M31.2,104.6C31.2,104.6,31.2,104.5,31.2,104.6C31.2,104.5,31.2,104.4,31.2,104.6c-0.1,0-0.2,0-0.2,0.1
		C31,104.6,31.1,104.6,31.2,104.6L31.2,104.6z M32.1,86.4c0.7,0,1.3-0.3,1.9-0.5c0.8-0.2,1.5-0.4,2.2-0.5c1.3-0.2,2.6-0.4,3.9-0.5
		c0.2,0,0.4,0,0.7-0.1c-0.8-0.2-1.6-0.2-2.4-0.2c-1.9,0.2-3.8,0.7-5.5,1.4C32.6,86,32.3,86.1,32.1,86.4c-0.3,0.1-0.6,0.2-0.8,0.4
		C31.6,86.7,31.8,86.6,32.1,86.4z M31.9,101.4c0,0-0.2,0-0.1,0.1C31.8,101.5,31.8,101.4,31.9,101.4z M32,108.4c0,0,0.1,0,0.2-0.1h0
		C32.2,108.4,32.1,108.4,32,108.4L32,108.4C32,108.5,32,108.5,32,108.4L32,108.4z M32.6,108.2c1.5-0.6,2.8-1.4,4.3-2.1
		c0.4-0.2,0.7-0.5,1.1-0.7c0.3-0.2,0.7-0.5,1.1-0.6c-0.5,0.6-1.2,1-1.8,1.4c-1.1,0.6-2.2,1.2-3.3,1.7c-0.6,0.3-1.1,0.5-1.8,0.6
		C32.3,108.3,32.5,108.2,32.6,108.2L32.6,108.2z M31.9,87c1.1-0.2,2.1-0.5,3-1c0.3,0.1,0.6,0,0.9,0c0.9-0.1,1.8-0.3,2.7-0.4
		c0.3-0.1,0.7-0.1,1-0.3c-0.2,0-0.3,0-0.3-0.1c-1.2,0.1-2.5,0.2-3.7,0.6c-0.2,0.1-0.5,0.1-0.7,0.3C33.9,86.2,32.8,86.4,31.9,87
		L31.9,87L31.9,87L31.9,87z M33.9,101c0.6-0.4,1.2-0.8,1.8-1.2c1.6-1,3-2,4.3-3.3c0.5-0.4,0.9-0.9,1.4-1.3c1.3-1,2.4-2.3,3.5-3.6
		c0.2-0.2,0.3-0.5,0.5-0.7c0.2-0.4,0.1-0.6-0.2-0.8c-0.3-0.2-0.6-0.4-1-0.6c-0.7-0.3-1.4-0.4-2.1-0.6c-1.3-0.2-2.5-0.2-3.8-0.1
		c-0.4,0.1-0.8,0.2-1.2,0.4c-0.2,0.1-0.2,0.4,0,0.5c0.1,0.1,0.3,0.2,0.3,0.4c-0.1,0.5-0.2,1-0.5,1.4c-0.4,0.5-0.5,1.2-0.9,1.7
		c0,0.1,0,0.2,0,0.3c0,0.4-0.2,0.8-0.3,1.1c-0.4,0.8-0.8,1.5-1.2,2.3c-0.1-0.1-0.2-0.2-0.3,0c0.1,0,0.2,0,0.3-0.1
		c-0.4,0.9-0.9,1.9-1.4,2.8c-0.1,0.2-0.3,0.4-0.5,0.5c-0.1,0.1-0.3,0.1-0.2,0.3c0.1,0.3-0.1,0.7-0.2,1.1c0,0.3,0.2,0.4,0.4,0.3
		C33.1,101.6,33.5,101.3,33.9,101L33.9,101z M33,99.1L33,99.1L33,99.1c-0.1,0.1-0.3,0.2-0.2,0.4C32.9,99.4,32.9,99.3,33,99.1z
		 M33.5,98.2L33.5,98.2L33.5,98.2L33.5,98.2L33.5,98.2z M34.9,102.9c0.1-0.1,0.2-0.1,0.3-0.2C35.1,102.8,35,102.8,34.9,102.9
		c-0.1,0.1-0.2,0.1-0.3,0.2C34.7,103,34.8,103,34.9,102.9z M37.6,87.9c0.4,0,0.8,0,1.2-0.1c0.6-0.1,1.2-0.1,1.8-0.2
		c0,0,0.1-0.1,0.1-0.1c0-0.1,0-0.1-0.1-0.2c-1.2-0.2-2.4-0.1-3.6,0.1c-0.3,0-0.4,0.2-0.3,0.3c0.1,0.1,0.2,0.1,0.4,0.1
		C37.3,87.9,37.4,87.9,37.6,87.9L37.6,87.9z M37.8,88.6c0,0-0.1,0-0.1,0c0,0.1-0.1,0.1-0.1,0.1c0,0,0.1,0.1,0.1,0.1
		C37.7,88.7,37.8,88.6,37.8,88.6L37.8,88.6z M39.4,104.5c0.7-0.4,1.3-1,2-1.3c-0.6,0.7-1.4,1.3-2.3,1.6
		C39.2,104.7,39.3,104.5,39.4,104.5z M41.6,103C41.6,103,41.6,103,41.6,103c0,0,0,0-0.1,0.1C41.5,103.1,41.5,103.1,41.6,103z
		 M44.5,100.8c0,0,0.1-0.1,0.2-0.1C44.5,100.7,44.5,100.7,44.5,100.8L44.5,100.8L44.5,100.8z M45.1,99.9c0-0.1,0.1-0.1,0.2-0.2
		C45.2,99.8,45.1,99.9,45.1,99.9L45.1,99.9L45.1,99.9L45.1,99.9z"/>
	<path class="st1" d="M72,116.1c-1.8-0.8-3.7-1.3-5.5-2c-2.6-0.9-5.2-1.7-7.9-2.6c-1.3-0.4-2.7-0.8-4-1.2c-0.2,0-0.4-0.1-0.5-0.1
		c0,0-0.1,0-0.2,0.1c0,0.1,0,0.2,0.1,0.2c0.6,0.2,1.2,0.5,1.8,0.7c2.6,0.8,5.3,1.6,7.9,2.4c1.8,0.6,3.6,1.2,5.4,1.9
		c0.3,0.1,0.7,0.3,0.9,0.5c-0.7-0.1-1.4-0.4-2.1-0.6c-1.5-0.5-2.9-1-4.4-1.5c-1.8-0.6-3.6-1.1-5.4-1.6c-1.2-0.4-2.3-0.7-3.5-1.1
		c-0.3-0.1-0.7-0.2-1-0.3c-0.4-0.1-0.8,0.1-0.8,0.5c-0.2,1.1-0.8,2-1,3.1c0,0.3-0.1,0.5-0.5,0.4c-0.2-0.1-0.4,0.1-0.6,0.2
		c-0.2,0.2-0.4,0.4-0.7,0.4c-0.3,0.1-0.4,0-0.5-0.2c0-0.1,0-0.2,0-0.3c0-0.1-0.1-0.2-0.2-0.1c-0.2,0-0.4,0.2-0.7,0.1
		c-0.3-0.1-0.4-0.4-0.5-0.6c-0.3-0.5-0.3-1.1-0.4-1.6v0v0c-0.7,0-0.8-0.1-1-0.7s-0.2-1.1-0.1-1.7c0.2-0.9,0.4-1.8,0.7-2.6
		c0.2-0.5,0.4-1,0.2-1.7c0-0.3,0-0.6,0.2-0.8c0-0.1,0.1-0.2,0.2-0.3c0.9-0.8,1.2-1.9,1.5-2.9c0.4-1,0.8-2,1.2-3
		c0.3-0.7,0.6-1.4,0.9-2.1c0.4-0.9,0.8-1.8,1.3-2.7c0.4-0.7,0.8-1.5,1-2.3c0.1-0.3,0.2-0.5,0.3-0.7c0.4-0.7,0.7-1.3,1.1-2
		c0.1-0.2,0-0.4-0.1-0.4c-0.3,0-0.6,0-1,0c0.5-0.2,0.8-0.2,1.2-0.3c0,0,0.1-0.1,0.1-0.1s0-0.1-0.1-0.1c-0.3,0-0.6,0-0.9,0.1
		c-1.2,0.2-2.4,0.5-3.6,0.9c-1,0.3-2,0.6-3.1,0.9c-0.3,0.1-0.7,0.2-1.1,0.2c-0.1,0-0.2-0.1-0.3-0.2c0-0.1,0.1-0.2,0.2-0.3
		c0.2-0.1,0.4-0.1,0.7-0.2c-0.1-0.1-0.2-0.1-0.4-0.1c-0.1,0-0.2,0-0.3,0c-0.6-0.1-0.8-0.3-0.5-0.8c0.1-0.2,0.2-0.4,0.1-0.7
		c-0.1-0.6,0.2-1,0.7-1.4c0.3-0.2,0.5-0.3,0.8-0.5c1.9-1,3.8-1.8,5.8-2.3c0.8-0.3,1.7-0.5,2.6-0.6c0.2,0,0.4-0.1,0.7-0.1
		c0.9-0.2,1.8-0.3,2.7-0.3c0.8,0,1.6-0.1,2.4-0.2c1.9-0.1,3.6,0.2,5.4,0.8c0.3,0.1,0.6,0.2,0.8,0.3c1.2,0.4,2.2,1.2,2.9,2.3
		c0.6,0.9,1,1.8,1.1,2.9c0.1,1.2,0.2,2.2,0.2,3.4c0,1-0.2,1.9-0.3,2.8c0,0.3-0.2,0.6-0.3,0.8c-0.4,0.7-0.8,1.4-1.4,1.9
		c-0.3,0.2-0.5,0.5-0.7,0.8c-0.3,0.4-0.7,0.8-1.1,1c-0.2,0.1-0.3,0.2-0.4,0.4c-0.1,0.1-0.3,0.3-0.4,0.4c-0.4,0.3-0.7,0.6-1.1,1
		c-0.5,0.6-1.2,1-1.9,1.4c-0.3,0.1-0.5,0.3-0.7,0.6c-0.5,0.6-1,0.9-1.7,1.2c-0.1,0.1-0.3,0.1-0.4,0.2c-0.3,0.1-0.3,0.4-0.4,0.6
		c0,0.3,0.1,0.4,0.4,0.5c0.6,0.2,1.2,0.5,1.9,0.8c1.2,0.4,2.5,0.7,3.6,1.5c0.1,0.1,0.3,0.1,0.4,0.2c1,0.4,2.1,0.8,3.1,1.2
		c0.4,0.2,0.9,0.4,1.3,0.7c0.4,0.3,0.9,0.5,1.4,0.6c0.5,0.2,0.9,0.4,1.3,0.7c0.5,0.4,0.8,0.9,0.7,1.6c0,0.2-0.2,0.4-0.4,0.3
		c-0.1,0-0.2-0.1-0.3-0.2c-1.7-0.9-3.5-1.6-5.2-2.4c-0.5-0.2-1.1-0.4-1.7-0.7c-0.5-0.2-1-0.4-1.5-0.3c-0.3-0.2-0.6-0.4-0.9-0.5
		c-1.1-0.4-2.3-0.8-3.4-1.2c-0.3-0.1-0.6-0.2-0.9-0.3c-0.6-0.2-1.2-0.4-1.7-0.5c0,0-0.1,0-0.1,0v0.1c0.2,0.2,0.4,0.2,0.6,0.3
		c1.2,0.4,2.4,0.8,3.6,1.2c0.6,0.3,1.3,0.5,2,0.7c0.3,0.1,0.6,0.2,0.9,0.2c0.4,0.3,0.9,0.5,1.4,0.7c1.5,0.6,3,1.3,4.5,1.9
		c0.7,0.3,1.3,0.7,1.9,1c0.2,0.1,0.3,0.3,0.5,0.4c-0.8-0.2-1.4-0.6-2.1-0.9c-1-0.4-2.1-0.8-3.1-1.3c-0.3-0.1-0.6-0.2-0.9-0.2
		c-0.2-0.2-0.4-0.3-0.9-0.4c0.4,0.2,0.7,0.3,0.9,0.4c0.3,0.3,0.6,0.4,0.9,0.5c1.6,0.7,3.1,1.3,4.6,2.1c0.2,0.1,0.4,0.3,0.7,0.4
		c0.2,0.2,0.3,0.5,0.1,0.7c-0.4,0.4-0.8,0.6-1.4,0.4c-0.1,0-0.3-0.1-0.4-0.1c-2.1-1-4.2-1.7-6.4-2.4c-3.5-1.3-7-2.3-10.5-3.5
		c-0.4-0.1-0.7-0.3-1.1-0.3c-0.1,0.1-0.2,0.1-0.2,0.1c0,0.1,0,0.2,0.1,0.2c0.3,0.1,0.7,0.2,1,0.3c1.3,0.4,2.7,0.7,4,1.2
		c2.8,0.9,5.6,1.8,8.3,2.8c1.3,0.5,2.6,1.1,3.9,1.6c0.4,0.2,0.8,0.4,1.1,0.7c0,0,0.1,0.1,0.1,0.1c0,0.1-0.1,0.1-0.2,0.1
		C72.8,116.4,72.4,116.2,72,116.1L72,116.1z M49,87.2c0.2,0,0.3-0.1,0.5-0.2c0.2-0.1,0.3-0.1,0.5-0.2c0.1-0.1,0.3-0.2,0.5-0.2
		c0.1,0,0.3,0,0.4-0.1c0.3-0.1,0.5-0.2,0.3-0.2s-0.3,0-0.4,0.1c-0.1,0.1-0.2,0.2-0.3,0.2c-0.2,0.1-0.3,0.2-0.5,0.2
		c-0.2,0-0.3,0.1-0.5,0.2C49.3,87,49.1,87.1,49,87.2c-0.5,0.1-0.9,0.3-1.3,0.6h0C48.1,87.6,48.6,87.5,49,87.2L49,87.2z M52,88.4
		c1.1-0.4,2.3-0.7,3.5-0.8c0.1,0,0.3,0,0.4-0.1c0.2,0,0.4,0,0.5-0.2c0.1-0.1-0.1-0.2-0.6-0.1c0,0-0.1,0-0.1,0
		c-1.6,0.2-3.1,0.5-4.6,1c-1,0.3-1,0.3-0.1,0.1c1.4-0.4-0.1,0.1,0,0.1c0,0,0,0.1,0.1,0.1C51.4,88.5,51.7,88.5,52,88.4L52,88.4z
		 M52.2,112.5c0,0,0-0.1,0-0.1c0,0,0,0-0.1,0C52.1,112.4,52.1,112.4,52.2,112.5C52.1,112.5,52.2,112.5,52.2,112.5L52.2,112.5z
		 M51.7,89.3L51.7,89.3L51.7,89.3z M52.7,89c0,0,0.1,0,0.2,0h0C52.9,89,52.8,89.1,52.7,89L52.7,89C52.7,89.1,52.7,89.1,52.7,89
		L52.7,89z M53.1,88.9c0,0,0.1,0,0.2,0C53.2,89,53.2,89,53.1,88.9C53,89,53,89,52.9,89C53,89,53,89,53.1,88.9z M64,84.5
		c-2.1-0.3-4.3-0.2-6.5,0c-0.8,0.1-1.7,0.2-2.5,0.5c1.8-0.2,3.7-0.2,5.5-0.3s3.7,0.2,5.5,0.4C65.4,84.7,64.7,84.6,64,84.5z
		 M56.9,101.5c0.3-0.2,0.4-0.6,0.4-0.9c0.1-0.2,0.1-0.3,0.2-0.5c0,0.2-0.1,0.4-0.1,0.5c-0.3,0.2-0.5,0.5-0.7,0.8c0,0,0,0.1,0,0.2
		C56.8,101.5,56.8,101.5,56.9,101.5z M56.7,85.4c0.1-0.1,0.1-0.1,0.2-0.1c0.1,0,0.3,0,0.5,0c0.1,0,0.3,0,0.5-0.1c0,0,0-0.1,0.1-0.1
		c0,0-0.1-0.1-0.1-0.1c-0.3,0-0.7,0-0.9,0.2C56.8,85.3,56.7,85.3,56.7,85.4C56.6,85.4,56.6,85.4,56.7,85.4
		C56.6,85.4,56.7,85.4,56.7,85.4z M58.1,101.2c0.1-0.1,0.2-0.1,0.3-0.2c0.4-0.4,0.9-0.7,1.4-1c1.1-0.8,2.3-1.7,3.3-2.6
		c1-0.9,2-1.7,3-2.7c0.8-0.7,1.6-1.5,2.3-2.4c0.6-0.8,0.8-0.9-0.2-1.6c-0.1,0-0.1-0.1-0.2-0.1c-0.7-0.6-1.6-0.9-2.4-1.3
		c-0.3-0.1-0.6,0-0.9-0.1c-0.2,0-0.4,0-0.5-0.3c-0.1-0.2-0.2-0.2-0.4-0.2c-0.2,0-0.3,0.1-0.5,0.2c-0.4,0-0.9,0-1.3,0.1
		c-0.1,0-0.2,0.1-0.2,0.2c0,0.1,0,0.2,0.2,0.2c0.4,0.1,0.4,0.2,0.3,0.4c0,0.4-0.1,0.8-0.3,1.1c-0.4,0.5-0.4,1.1-0.7,1.7
		c0,0.1,0,0.1,0,0.2c0.1,0.4-0.1,0.8-0.4,1c-0.2,0.2-0.3,0.4-0.4,0.6c-0.1,0.1-0.1,0.3,0,0.4c0.2,0.2,0.1,0.4,0,0.6
		c-0.5,1-1.1,2.1-1.7,3.1c-0.1,0.2-0.2,0.3-0.3,0.5c0,0,0-0.1,0-0.1c0-0.1,0-0.2-0.1-0.2c0,0-0.1,0.1-0.2,0.1c0,0.1,0,0.3-0.1,0.4
		c-0.1,0.1-0.1,0.1-0.2,0.2c0-0.1,0.1-0.1,0.2-0.2c0.1-0.1,0.2-0.1,0.3-0.2c0,0.4-0.2,0.7-0.3,1c-0.2,0.3-0.3,0.6-0.4,0.9
		c0,0.1-0.1,0.3,0.1,0.3C57.8,101.3,57.9,101.2,58.1,101.2L58.1,101.2z M58.7,97.7c0.2-0.1,0.3-0.3,0.3-0.5c0-0.1,0-0.2,0,0
		c0,0.2,0,0,0,0c-0.2,0.1-0.3,0.3-0.3,0.5v0.1C58.6,97.7,58.7,97.7,58.7,97.7L58.7,97.7z M64.9,85.5c0,0-0.1-0.1-0.2-0.1
		c-1.5-0.4-3-0.5-4.6-0.4c-0.1,0-0.2,0-0.3,0.1c0.1,0.1,0.3,0.1,0.4,0.1c1,0.1,2,0.1,3.1,0.2C63.9,85.4,64.4,85.6,64.9,85.5
		L64.9,85.5c0,0,0.1,0,0.1,0C65,85.5,65,85.5,64.9,85.5z M65.6,87.9c0,0,0-0.1-0.1-0.1c-1-0.4-2.1-0.6-3.1-0.8c-0.1,0-0.1,0-0.2,0
		c-0.1,0-0.2,0-0.3,0.1s0,0.2,0.2,0.3c0.2,0,0.4,0.1,0.5,0.2c0.8,0.1,1.5,0.2,2.3,0.4C65.1,88,65.3,88,65.6,87.9
		C65.5,88,65.6,88,65.6,87.9L65.6,87.9z M63.3,88.7C63.3,88.7,63.4,88.7,63.3,88.7C63.4,88.7,63.3,88.7,63.3,88.7z M65.7,89.1
		L65.7,89.1L65.7,89.1z M70,115.9L70,115.9c0.2,0,0.3,0.1,0.5,0.1C70.4,115.9,70.2,115.9,70,115.9z M70.6,116c0.5,0.1,1,0.3,1.3,0.7
		C71.5,116.5,71,116.4,70.6,116z M72,116.6C72,116.6,72,116.6,72,116.6C72,116.6,72,116.6,72,116.6C72,116.7,72,116.7,72,116.6z
		 M74.7,113.8c0.1,0,0.2,0.1,0.4,0.1v0C75,113.9,74.9,113.8,74.7,113.8z"/>
	<path class="st1" d="M75.6,112c-0.4-0.2-0.7-0.4-1-0.7c-0.9-1-1.8-1.9-2.6-3c-0.6-0.9-1-2-1.3-3.1c-0.1-0.4-0.2-0.7-0.2-1.1
		c-0.1-0.6-0.2-1.3-0.1-1.9c0.1-0.8,0.2-1.7,0.3-2.4c0.1-1.2,0.4-2.3,0.9-3.4c0.4-0.9,0.6-1.8,1.1-2.7c0.5-0.9,0.9-1.9,1.5-2.7
		c0.1-0.1,0.1-0.2,0.2-0.4c0.7-1.4,1.5-2.6,2.4-3.9c0.1-0.2,0.3-0.4,0.5-0.6c0.3-0.3,0.6-0.6,0.9-0.9c0.8-1.1,1.9-1.9,2.9-2.7
		c0.6-0.4,1.2-0.5,1.8-0.8c0.5-0.2,0.9,0.1,1.1,0.5c-0.8,0.1-1.5,0.5-2,1.1v0c0.8-0.2,1.4-0.6,2-1.1c0.4,0.1,0.8,0.1,1.2,0.1
		c1.3-0.1,2.3,0.3,3.2,1.2c0.6,0.6,1.1,1.1,1.6,1.7c1,1.2,1.7,2.7,2,4.3c0.3,1.7,0.4,3.4,0.2,5.1c-0.1,0.7-0.1,1.5-0.3,2.1
		c0,0.1,0,0.1,0,0.2c0,1.2-0.5,2.2-0.9,3.3c-0.1-0.1-0.3-0.1-0.3,0.1c0,0,0,0.1,0,0.1c0,0,0,0,0-0.1c0.1-0.1,0.2-0.1,0.3-0.2
		c-0.3,1.1-0.6,2.1-1.2,3.1c-0.5,0.9-1.1,1.9-1.7,2.8c-0.7,1.2-1.6,2.3-2.5,3.3c-0.8,0.8-1.7,1.6-2.6,2.2c-0.2,0.1-0.4,0.2-0.6,0.3
		c-0.2-0.1-0.4,0-0.7,0.2c-0.8,0.6-1.8,0.8-2.8,0.8C77.9,112.8,76.7,112.6,75.6,112L75.6,112z M78.9,106.6c0.5-0.5,0.9-0.9,1.4-1.3
		c0.8-0.8,1.5-1.8,2.1-2.7c0.5-0.7,1.1-1.4,1.5-2.2c0.3-0.6,0.6-1.2,1-1.8c0.6-0.8,1-1.8,1.4-2.7c0.3-0.7,0.6-1.5,0.8-2.2
		c0.8-2.1,1.1-4.2,0.9-6.4c0-0.3-0.1-0.5-0.1-0.8c-0.1-0.3-0.3-0.4-0.6-0.3c-0.3,0.1-0.6,0.2-1,0.2c-0.6,0.1-1.1,0.3-1.6,0.6
		c-0.3,0.1-0.5,0.3-0.8,0.4c0,0-0.1,0-0.1,0c0,0,0-0.1,0-0.1c0.5-0.4,1.1-0.8,1.6-1.1c0.2-0.1,0.4-0.2,0.5-0.4c0-0.1,0-0.1,0-0.2
		c0,0,0,0-0.1,0c-0.1,0.1-0.3,0.1-0.4,0.2c-0.5,0.2-0.9,0.5-1.3,0.8c-0.8,0.5-1.4,1.1-1.9,1.9c-0.3,0.4-0.6,0.9-0.9,1.4
		c-0.1-0.1,0-0.2-0.1-0.3c-0.1-0.1-0.2,0-0.3,0.1c-0.4,0.6-0.7,1.2-0.8,1.9c-0.1,0.1-0.2,0.1-0.3,0.2c-0.2,0.2-0.3,0.5-0.2,0.4
		c0.2-0.1,0.3-0.2,0.3-0.4c0-0.1,0.1-0.2,0.1-0.3c0.2-0.2,0.3-0.4,0.5-0.6c-0.4,1.2-1,2.3-1.6,3.4c-0.2,0.3-0.3,0.6-0.6,0.9
		c-0.2,0.1-0.3,0.4-0.4,0.6c0,0.1,0,0.2,0,0.3c0.1,0,0.1-0.1,0.2-0.1c0,0,0.1,0,0.1-0.1c0,0,0.1,0.1,0.1,0.2c-0.1,0.4-0.3,0.7-0.5,1
		c-0.1,0.1-0.2,0.1-0.3,0.2c0,0.1-0.1,0.1-0.1,0.2c0,0.1,0.1,0.1,0.2,0.2c0,0.4-0.2,0.7-0.3,1c0,0-0.1-0.1-0.1,0c0,0,0.1,0,0.2,0
		c-0.1,0.3-0.1,0.6-0.2,0.8c-0.6,2.5-1,4.9-0.9,7.5c0,0.1-0.1,0.1-0.2,0.2c0-0.1,0.1-0.1,0.2-0.2c0,0,0.1,0,0.2,0.1
		c0.3,0.3,0.6,0.2,1,0.1C78.1,107.1,78.5,106.8,78.9,106.6L78.9,106.6z M77.1,90L77.1,90C77.2,89.9,77.1,89.9,77.1,90
		C77,90,77,90.1,77,90.1C77.1,90.1,77.1,90,77.1,90L77.1,90z M78,88.5c0.1-0.1,0.1-0.1,0.2-0.1c0.1-0.1,0.1-0.2,0.2-0.4
		c0-0.1,0.1-0.1,0.2-0.2s0.1-0.1,0.2-0.2v0c0,0-0.1,0.1-0.2,0.1c0,0.1-0.1,0.1-0.2,0.2c0,0.1-0.1,0.2-0.2,0.4
		C78.1,88.4,78,88.5,78,88.5c-0.1,0.2-0.3,0.3-0.3,0.5C77.8,88.9,77.9,88.7,78,88.5z M78,97.3c0,0.2-0.1,0.4-0.2,0.5
		C77.9,97.6,78,97.5,78,97.3z M79.4,93.2L79.4,93.2L79.4,93.2c-0.3,0.3-0.4,0.6-0.3,0.5C79.3,93.6,79.4,93.4,79.4,93.2z M80,108.3
		c1.3-0.8,2.3-1.8,3-3.1c0-0.1,0.1-0.2,0.2-0.4c0,0.1-0.1,0.2-0.2,0.4c0,0.1-0.1,0.1-0.1,0.1c-1.1,0.8-2,1.9-3,2.8
		c-0.1,0.1-0.1,0.1,0,0.2C79.9,108.3,80,108.3,80,108.3L80,108.3z M80.3,85.6c0,0,0.1-0.1,0.2-0.2c0-0.1,0.1-0.1,0.1-0.2
		c0.1-0.1,0.1-0.1,0.2-0.2c0.1-0.1,0.1-0.1,0.2-0.1c0-0.1,0.1-0.1,0.2-0.2c0,0.1-0.1,0.1-0.2,0.2c0,0.1-0.1,0.1-0.2,0.1
		c0,0.1-0.1,0.1-0.2,0.2c0,0.1-0.1,0.1-0.1,0.2C80.4,85.5,80.3,85.5,80.3,85.6c-0.1,0.1-0.1,0.1-0.2,0.2
		C80.2,85.7,80.2,85.6,80.3,85.6z M81.2,108.2c0.7-0.4,1.3-1.1,1.8-1.7c0.2-0.2,0.3-0.5,0.4-0.7c-0.9,0.6-1.6,1.5-2.3,2.2
		c-0.1,0.1-0.1,0.2,0,0.2C81.1,108.3,81.2,108.2,81.2,108.2L81.2,108.2z M81,90.3c0.1-0.2,0.2-0.3,0.4-0.4
		C81.3,90.1,81.2,90.3,81,90.3L81,90.3C81,90.4,81,90.3,81,90.3z M82.4,110.4c0.6-0.3,1.1-0.7,1.5-1.2c1.1-1.2,2-2.6,3-3.9
		c0-0.1,0.1-0.1,0-0.3c0,0.1-0.1,0.1-0.2,0.1c-0.4,0.4-0.8,0.8-1.2,1.2c-1,1.2-2,2.4-3.2,3.5c-0.1,0.1-0.3,0.3-0.3,0.5
		c0,0.1,0,0.1,0.1,0.1c0,0,0,0,0,0C82.2,110.5,82.3,110.5,82.4,110.4L82.4,110.4z M82,88.6c0.1-0.1,0.1-0.2,0.2-0.4
		c0-0.1,0-0.1-0.1-0.1h0c-0.1,0.1-0.2,0.2-0.3,0.3c-0.1,0.1-0.1,0.3,0,0.3C81.8,88.7,81.9,88.7,82,88.6z M84,110.4L84,110.4
		C84,110.4,84,110.4,84,110.4C84,110.5,84,110.4,84,110.4z M85,109.7c0.1-0.1,0.3-0.2,0.4-0.3c0.6-0.7,1.1-1.4,1.7-2.1
		c0.9-1.1,1.5-2.3,2.2-3.5c0.2-0.4,0.4-0.7,0.4-1.1c0.2-0.2,0.3-0.4,0.3-0.7c-0.2,0.2-0.3,0.4-0.3,0.7c-0.5,0.5-0.9,1.1-1.2,1.8
		c-0.3,0.5-0.6,0.9-0.9,1.4c-0.7,1.1-1.5,2-2.2,2.9c-0.2,0.2-0.4,0.5-0.5,0.7C84.8,109.6,84.9,109.6,85,109.7
		C84.9,109.7,85,109.7,85,109.7L85,109.7z M86.1,101.1c-0.2,0.1-0.2,0.4-0.2,0.5C85.9,101.5,86.2,101.4,86.1,101.1z M86.7,99.9
		c0,0,0-0.1,0-0.1c0.1-0.1,0.1-0.2,0.2-0.4h0l0,0c0,0.1-0.1,0.2-0.1,0.3C86.8,99.8,86.7,99.9,86.7,99.9
		C86.7,99.9,86.6,99.9,86.7,99.9C86.7,100,86.7,100,86.7,99.9L86.7,99.9z M91.1,97.5c0.2-0.3,0.1-0.6,0.1-0.9c0-0.1,0.1-0.1,0.1-0.1
		s0-0.1,0-0.1c0,0-0.1,0-0.1,0.1s0,0.1,0,0.2c-0.1,0.3-0.3,0.6-0.3,0.9c0,0,0.1,0.1,0.1,0.1C91,97.6,91.1,97.5,91.1,97.5L91.1,97.5z
		"/>
	<path class="st1" d="M94.1,112c-0.1,0-0.2,0-0.3,0c-0.2,0-0.4-0.2-0.3-0.4c0-0.1,0.1-0.1,0.1-0.2c0-0.1,0-0.2-0.1-0.3
		c-0.1-0.1-0.3-0.1-0.4-0.1c-0.5,0-0.7-0.3-0.8-0.7c-0.1-0.3-0.1-0.6,0-0.9c0-0.4,0-0.7-0.2-1c-0.3-0.5-0.3-1.1-0.2-1.7
		c0.1-0.4,0.2-0.8,0.4-1.1c0.6-1.4,1.1-2.8,1.6-4.3c0.5-1.1,0.8-2.3,1.2-3.4c0.1-0.3,0.2-0.6,0.4-0.9c0.4-0.8,0.7-1.6,1-2.5
		c0.3-0.9,0.8-1.8,1.1-2.7c0.2-0.4,0.3-0.9,0.5-1.3c0-0.1,0-0.2-0.1-0.3c-0.1-0.1-0.3,0-0.3-0.2c0,0,0.2-0.1,0.3-0.1
		c0-0.1,0.1-0.1,0-0.1c0,0-0.1-0.1-0.1-0.1c-0.5,0-0.9,0.1-1.4,0.2c-0.4,0.1-0.9,0.1-1.3,0.2c-0.1,0-0.2,0-0.3-0.1l0,0l0-0.1
		c0,0,0.1-0.1,0.1-0.1c1-0.2,1.9-0.4,2.9-0.7c0.1,0,0.2,0,0.2-0.1c0.1-0.1,0.2-0.1,0.2-0.1c0-0.1-0.1-0.1-0.2-0.1
		C97.9,89,97.4,89,97,89.1c-0.4,0.1-0.9,0.2-1.3,0.3c-0.3,0.1-0.5,0.1-0.8,0.1c-0.6,0-0.8-0.3-0.5-0.8c0.1-0.2,0.1-0.3,0-0.4
		c-0.4-0.6,0.1-1.2,0.5-1.4c1.6-0.6,3.2-1.4,4.9-1.6c0.8,0,1.6-0.2,2.3-0.5c0.3-0.2,0.7-0.2,1.1-0.1c0.9,0.1,1.9,0.1,2.8,0
		c0.9-0.1,1.8-0.1,2.7-0.1c0.8,0,1.7,0,2.5-0.1c0.7,0,1.4,0,2.1,0c0.3,0,0.8,0.2,1.1,0.4c0.2,0,0.3,0.2,0.4,0.3
		c0.1,0.1,0.2,0.2,0.2,0.3c0,0.2-0.2,0.3-0.3,0.3c-0.4-0.2-0.8-0.3-1.2-0.3c-0.8-0.1-1.6-0.1-2.3-0.1c-1,0.1-2,0.1-3,0.1
		c-1,0.1-2,0.1-3.1,0.3c-0.1,0.1-0.2,0.1-0.3,0.1c0,0,0,0.1,0,0.1c0,0,0.1,0.1,0.1,0.1c0.9,0,1.8,0,2.7-0.2c1.8-0.2,3.6-0.2,5.4-0.1
		c0.1,0,0.3,0.1,0.4,0.1c-0.2,0-0.4,0-0.7,0c-1.9,0.1-3.8,0.2-5.7,0.3c0,0-0.1,0-0.2,0c-0.1,0-0.1,0-0.1,0.1c-0.1,0.1,0.1,0-0.1,0.1
		c0.3,0,0.5,0,0.6,0c0.8,0,1.6-0.1,2.3-0.1c1.3,0,2.6-0.2,3.9,0c0.1,0,0.3,0,0.3,0c0,0,0.1-0.1,0.1-0.1c0,0-0.1-0.1-0.1-0.1
		c-0.1-0.1-0.3-0.1-0.4-0.2c0.4,0,0.9,0.1,1.4-0.1c0.1,0.2,0.1,0.5,0.4,0.7c0.1,0.1,0.1,0.3,0.2,0.4c0.1,0.2-0.1,0.4-0.3,0.5
		c-0.2,0-0.3,0-0.5,0c-1.6-0.2-3.2-0.1-4.8,0c-1,0.1-1.9,0.1-2.9,0.2c-0.3,0-0.7,0-1,0.2c0,0.1-0.1,0.1-0.1,0.1s0.1,0.1,0.1,0.1
		c0.5,0,1,0,1.5-0.1c1.7-0.2,3.3-0.2,4.9-0.3c0.7-0.1,1.4,0,2,0c0.2,0,0.5,0.1,0.7,0.2c0,0,0.1,0.1,0.1,0.1c0,0,0,0.1-0.1,0.1
		c-0.2,0.1-0.3,0.1-0.5,0c-0.4-0.2-0.8-0.1-1.2-0.1c-1.1,0.1-2.2,0.1-3.4,0.2c-1.2,0.1-2.5,0.2-3.7,0.3c-0.1,0-0.3,0.1-0.4,0.1
		c0,0.1-0.1,0.1-0.1,0.2c0.1,0.2,0,0.3-0.2,0.4c-0.2,0.1-0.3,0.3-0.4,0.5c-0.1,0.2-0.2,0.4,0.1,0.6c0.1,0.1,0.1,0.3,0.1,0.4
		c-0.1,0.4-0.2,0.9-0.4,1.4c-0.3,0.6-0.4,1.3-0.8,1.8c-0.2,0.3-0.2,0.8-0.4,1.2c0,0.1,0,0.3,0.1,0.3s0.3,0.1,0.4,0.2
		c0.6,0.1,1.2,0.1,1.9,0c0.5-0.1,0.9,0,1.4,0c0.4,0,0.8,0.2,1.1,0.4s0.5,0.5,0.5,0.9c0,0.4,0.2,0.7,0.4,0.9c0.2,0.2,0.4,0.4,0.5,0.6
		c0.1,0.3,0,0.5-0.2,0.6c-0.2,0.1-0.3,0.2-0.5,0.2c0,0.1-0.1,0.1-0.1,0.1s0.1,0.1,0.1,0.1c0.2,0,0.4,0,0.7,0.1c0.1,0,0.2,0,0.2,0.1
		s0.1,0.1,0.1,0.1c-0.1,0.2-0.4,0.3-0.4,0.6c0,0-0.1,0.1-0.1,0.1c-1.8,0-3.5,0.5-5.3,0.6c0.1-0.1,0.3-0.1,0.4-0.2
		c-0.1-0.2-0.3-0.1-0.5-0.1s-0.3,0.1-0.5,0.2c0.2,0.2,0.4,0.1,0.6,0.1c-0.8,0.3-1.7,0.5-2.6,0.7c-0.2,0-0.4,0.1-0.7,0.1
		c-0.6,0.2-1,0.4-1.2,1c-0.2,0.6-0.6,1.1-0.8,1.7c-0.6,1.2-1.2,2.4-1.7,3.6c0,0.2-0.1,0.3-0.2,0.4c-0.3,0.3-0.3,0.7-0.5,1.1
		c-0.2,0.5-0.4,1-0.6,1.6c-0.1,0.2-0.2,0.4-0.2,0.5c-0.2,0.4-0.3,0.5-0.7,0.3C94.7,112,94.4,112,94.1,112L94.1,112z M94.9,88
		c0,0,0.1,0,0.1,0C95,88,95,88,94.9,88z M99.9,86.5C99.9,86.5,99.8,86.4,99.9,86.5c-0.1,0-0.2,0-0.2,0
		C99.6,86.5,99.7,86.5,99.9,86.5C99.8,86.5,99.9,86.5,99.9,86.5z M102.4,101c-0.6,0.2-1,0.3-1.4,0.4
		C101.5,101.4,102,101.3,102.4,101z M102,100.4c2-0.3,3.9-0.7,5.9-1c0,0,0.1,0,0.1-0.1c0,0,0.1-0.1,0.1-0.1s-0.1-0.1-0.1-0.1
		c-0.2,0-0.4,0-0.6,0c-0.8,0-1.5,0.1-2.2,0.2c-1.1,0.2-2.2,0.4-3.2,0.6c-0.3,0.1-0.5,0.1-0.7,0.3c0,0.1,0,0.2,0.1,0.2
		c0.1,0,0.2,0,0.2,0C101.8,100.5,101.9,100.5,102,100.4L102,100.4z M104.5,97.6c-0.6,0-1.2,0.1-1.8,0.3
		C103.4,98,103.8,97.9,104.5,97.6z M105.4,97.2c0.3-0.1,0.5-0.1,0.8-0.2c0.3,0,0.5-0.1,0.8-0.1c-0.1-0.1-0.1-0.1-0.1-0.1
		c-1.3,0-2.6,0.1-3.8,0.3c-0.1,0-0.2,0.1-0.2,0.1s0.1,0.1,0.2,0.1C103.9,97.3,104.7,97.3,105.4,97.2L105.4,97.2z M103.5,93.3
		L103.5,93.3L103.5,93.3z M105.8,100.5L105.8,100.5C105.8,100.5,105.7,100.5,105.8,100.5C105.6,100.5,105.6,100.6,105.8,100.5
		C105.7,100.6,105.8,100.5,105.8,100.5z M107.5,100.3L107.5,100.3L107.5,100.3L107.5,100.3z M108,88.6c-0.1,0-0.3,0-0.4,0
		C107.7,88.7,107.9,88.6,108,88.6z M112.6,88.3c-0.2,0-0.3,0-0.4,0C112.3,88.2,112.4,88.3,112.6,88.3z"/>
	<path class="st1" d="M111.7,112.5c-0.1-0.1-0.1-0.3-0.2-0.5c-0.1-0.2-0.4-0.2-0.6-0.1c-0.2,0.1-0.3,0.3-0.6,0.2
		c-0.3-0.1-0.4-0.3-0.5-0.6c-0.1-0.3-0.2-0.5-0.2-0.8c-0.1-0.4-0.2-0.8-0.6-1c-0.4-0.3-0.6-0.7-0.7-1.2c-0.2-0.9,0-1.7,0.3-2.5
		c0.7-2.3,1.4-4.5,2.3-6.7c0.2-0.6,0.4-1.2,0.6-1.8c0.2-0.4,0.4-0.9,0.6-1.3c0.4-1,0.7-2,1-3c0.3-1,0.7-2,1.2-2.9c0.5-1,1-2,1.4-3
		c0.1-0.3,0.3-0.5,0.5-0.8c0.4-0.6,0.7-1.1,1-1.6c0.5-1,1.2-1.9,1.9-2.6c0.6-0.6,1.4-0.6,1.8,0.1c0.2,0.3,0.5,0.6,0.8,0.9
		c0.3,0.3,0.4,0.8,0.4,1.2c0,0.4,0,0.8,0.3,1.2c0.1,0.1,0.1,0.3,0.1,0.4c0,0.3-0.1,0.5-0.1,0.8c-0.3,1.1-0.7,2.2-0.9,3.3
		c-0.1,0.4-0.4,0.8-0.5,1.2v0.3c-0.2,0.2-0.4,0.5-0.6,0.7c-0.1,0.1-0.1,0.2,0,0.3c0.2,0.1,0.1,0.3,0.1,0.4c-0.2,0.5-0.4,1.2-0.8,1.7
		c-0.1-0.1-0.1-0.1-0.2,0s-0.1,0.2-0.2,0.4c0,0.1-0.1,0.1-0.1,0.1s0,0.1,0,0.1c0,0,0.1-0.1,0.1-0.1c0,0,0-0.1,0-0.2
		c0.1-0.1,0.1-0.2,0.2-0.3c0,0,0.1,0,0.2,0c-0.1,0.4-0.2,0.8-0.4,1.3c-0.2,0.3-0.3,0.7-0.4,1c-0.2,0.4-0.3,0.8-0.7,1.1
		c-0.2,0.1-0.3,0.4-0.4,0.6c0,0,0,0.2,0.1,0.2c0,0,0.2-0.1,0.2-0.1s0-0.1,0.1-0.1c-0.1,0.3-0.2,0.5-0.4,0.7
		c-0.3,0.2-0.3,0.5-0.3,0.7c0.1,0.3,0,0.5-0.2,0.6c-0.3,0.1-0.3,0.3-0.2,0.5c0.1,0.2,0.1,0.4-0.1,0.5c-0.3,0.2-0.3,0.5-0.3,0.9
		c0,0.1-0.1,0.1-0.1,0.2c-0.2,0.2-0.4,0.5-0.3,0.8c0.1,0.3-0.1,0.5-0.2,0.7c-0.1,0.2-0.3,0.4-0.2,0.7c-0.1,0.1-0.2,0.2-0.3,0.3
		c-0.1,0.1,0,0.2,0.1,0.2c-0.1,0.8-0.4,1.6-0.7,2.4c-0.1,0.5-0.3,0.9-0.6,1.4v0c-0.1,0.1-0.2,0.2-0.2,0.3c0,0.6-0.3,1.1-0.3,1.7
		c0.1,0.4-0.1,0.7-0.5,0.8c-0.4,0.2-0.8,0.3-1.1,0.4C112,112.8,111.8,112.7,111.7,112.5L111.7,112.5z M114.2,109.4l1.4-4.3v0v0
		L114.2,109.4z M119.5,95.4v0.3C119.5,95.6,119.5,95.5,119.5,95.4z"/>
	<path class="st1" d="M120.3,111.7c-0.8-0.5-1.3-1.1-1.7-2c-0.3-0.7-0.6-1.4-0.8-2.1c-0.4-1.5-0.4-3,0.5-4.4
		c0.4-0.6,0.8-1.2,1.2-1.8c0.4-0.6,1-1.2,1.6-1.6c0.3-0.2,0.5-0.3,0.7-0.5c0.6-0.5,1.4-0.6,2.1-0.8c0.3-0.1,0.5,0,0.8,0.2
		c0.2,0.1,0.2,0.3,0,0.4c-0.3,0.2-0.6,0.3-0.9,0.4c-0.5,0.3-1.1,0.6-1.5,1.1v0c0.3,0,0.6-0.2,0.8-0.3c0.3-0.2,0.7-0.3,1-0.4
		c-0.3,0.3-0.7,0.4-1,0.8c0.1,0.2,0.2,0.1,0.3,0c0.3-0.1,0.6-0.3,0.8-0.4c0.3-0.2,0.6-0.3,0.9-0.4c0.2-0.1,0.5-0.2,0.7,0
		c0.2,0.3,0.2,0.7-0.1,0.9c-0.1,0.1-0.3,0.2-0.5,0.3c-0.3,0.2-0.7,0.5-1,0.7c-0.3,0.2-0.5,0.5-0.7,0.7c-0.1,0.1-0.1,0.2-0.1,0.3
		c0,0.1,0.2,0.1,0.3,0c0.4-0.3,0.9-0.7,1.3-1c0.3-0.2,0.7-0.4,1.1-0.6c0.1,0.1,0,0.2-0.1,0.3c-0.3,0.3-0.7,0.6-1.1,0.9
		c-0.3,0.3-0.7,0.6-1,0.9c-0.2,0.2-0.4,0.5-0.5,0.8c-0.3,0.2-0.4,0.4-0.5,0.7v0c0.3-0.1,0.4-0.4,0.5-0.7c0.2-0.1,0.3-0.1,0.5-0.2v0
		c-0.3,0.6-0.8,1.1-1.2,1.6c-0.2,0.2-0.3,0.4-0.2,0.6c0.1,0.2,0.3,0.3,0.5,0.3c0.4,0,0.8,0,1.2-0.1c1.4-0.5,2.8-1,4.1-1.6
		c0.8-0.4,1.6-0.8,2.2-1.5c0.1-0.1,0.3-0.3,0.4-0.4c0.4-0.3,0.6-0.6,0.9-0.9c0.3-0.5,0.7-1,1-1.5c0.4-0.6,0.7-1.4,0.9-2.1
		c0.2-0.9,0.1-1.3-0.7-1.8c-0.7-0.4-1.3-0.7-2-0.9c-0.4-0.2-1-0.3-1.5-0.5c-1-0.3-2-0.8-2.9-1.2c-0.5-0.3-1-0.7-1.3-1.1
		c-0.4-0.5-0.8-0.9-1.1-1.4c-0.2-0.3-0.3-0.5-0.4-0.8c-0.1-0.3-0.2-0.6-0.2-0.9c-0.1-0.8-0.2-1.7-0.4-2.6c-0.2-0.8-0.1-1.5,0.1-2.3
		c0.1-0.4,0.3-0.7,0.6-1c0.3-0.4,0.6-0.7,0.9-1c0.4-0.5,0.9-0.9,1.6-1.1c0.5-0.2,1.1-0.4,1.5-0.8s0.9-0.5,1.4-0.6
		c0.5-0.2,1-0.4,1.4-0.6c0.5-0.2,1.1-0.1,1.6-0.2c0.5-0.2,1.1-0.3,1.5-0.5c0.8-0.3,1.6-0.4,2.4-0.4c0.6,0,1.1-0.1,1.7-0.1
		c0.8-0.1,1.5,0,2.2,0c0.2,0,0.4,0.1,0.5,0.2c0.8,0.5,1.4,1.1,1.7,2c0.1,0.4,0.3,0.9,0.6,1.3c0.4,0.7,0.6,1.6,0.5,2.4
		c0,0.3,0,0.5,0.1,0.8c0.1,0.3,0.1,0.5,0,0.8c-0.2,0.5-0.4,1.2-0.9,1.6c-0.2,0.2-0.4,0.4-0.6,0.6c-0.2,0.1-0.3,0.3-0.2,0.5
		c-0.3,0.3-0.6,0.7-0.9,1c-0.4,0.4-0.7,0.6-1.4,0.8c0.4-0.4,0.8-0.5,1-0.9c-0.3,0.1-0.6,0.2-0.8,0.3c-0.4,0.2-0.7,0.3-1.1,0.3
		c-0.3,0-0.4-0.2-0.3-0.5c0-0.1,0.1-0.2,0.2-0.3c0-0.1-0.1-0.1-0.1-0.1c-0.1,0-0.2,0-0.3,0c-0.4,0.1-0.6-0.1-0.7-0.5
		c-0.1-0.3,0-0.6,0.1-0.9c0-0.2,0.2-0.4,0-0.7v0c-0.1-0.4-0.3-0.8-0.3-1.2c0-0.3-0.1-0.5-0.5-0.4c-0.6,0.2-1.1,0.3-1.7,0.5
		c-1.3,0.5-2.7,1-3.9,1.8c-0.2,0.1-0.4,0.2-0.6,0.4c-0.2,0.1-0.1,0.3,0,0.4s0.2,0.2,0.4,0.2c0.6,0.4,1.2,0.7,1.8,1.1
		c1.4,0.9,2.4,2,3.2,3.4c0.5,0.9,1,1.9,1.4,2.8c0.6,1.1,0.8,2.3,1,3.5c0.1,0.8,0.3,1.7,0.3,2.6c0,1.2-0.1,2.3-0.7,3.3
		c-0.1,0.3-0.3,0.6-0.2,0.9c-0.1,0.3-0.3,0.5-0.6,0.7c-0.4,0.3-0.7,0.6-1,0.9c-1.3,1.3-2.8,2.5-4.6,3.3c-0.6,0.2-1.1,0.5-1.5,0.9
		c-0.4,0.2-0.7,0.4-1.1,0.4c-0.3,0-0.6,0.1-0.9,0.2c-0.2,0-0.3,0.1-0.5,0c-0.4-0.2-0.8-0.1-1.2,0c-0.3,0.1-0.8,0.1-1.2,0.1
		C123.4,113.1,121.8,112.7,120.3,111.7L120.3,111.7z M121.6,101.8c0.1-0.1,0.1-0.1,0.2-0.1C121.6,101.7,121.6,101.8,121.6,101.8
		C121.6,101.8,121.6,101.8,121.6,101.8L121.6,101.8z M124,103.9c0,0,0.1-0.1,0.2-0.1C124.1,103.8,124,103.9,124,103.9L124,103.9z
		 M124.4,99.7c-0.1,0.1-0.2,0.1-0.3,0.2C124.1,99.8,124.3,99.8,124.4,99.7z M124.3,103.6c0,0-0.1,0.1-0.2,0.2
		C124.2,103.7,124.2,103.6,124.3,103.6z M124.4,103.4L124.4,103.4c0,0.1-0.1,0.1-0.1,0.2C124.3,103.6,124.4,103.5,124.4,103.4z
		 M124.7,99.6c-0.1,0.1-0.2,0.1-0.3,0.2C124.5,99.7,124.6,99.6,124.7,99.6z M124.6,103.2L124.6,103.2c0,0.1-0.1,0.1-0.2,0.2
		C124.5,103.4,124.6,103.3,124.6,103.2L124.6,103.2z M124.8,99.5c0,0-0.1,0-0.1,0.1C124.7,99.5,124.8,99.5,124.8,99.5z M130.5,106.5
		c0.3-0.2,0.5-0.4,0.6-0.7l0-0.1v0c-0.3,0-0.5,0.1-0.8,0.2c-1.2,0.6-2.4,1.3-3.8,1.7c-0.1,0.1-0.2,0.1-0.3,0.2v0.1
		c0,0,0.1,0.1,0.1,0.1c0.1,0,0.2,0,0.3,0C128,107.8,129.4,107.3,130.5,106.5L130.5,106.5z M127.1,84.4l0.1-0.1
		c0.1-0.1,0.2-0.1,0.3-0.2c-0.1,0.1-0.2,0.1-0.3,0.2C127.2,84.3,127.2,84.3,127.1,84.4C127,84.4,127,84.4,127.1,84.4L127.1,84.4
		L127.1,84.4z M129.2,108.1c0.7-0.2,1.4-0.6,1.9-1.1c0-0.1,0.1-0.2,0.1-0.2c0-0.1-0.1-0.1-0.2,0c-0.9,0.4-1.8,0.9-2.7,1.4l0,0.1
		c0,0,0,0.1,0,0.1l0.1,0C128.7,108.4,129,108.2,129.2,108.1L129.2,108.1z M129.7,111.1c0.5-0.2,1-0.4,1.5-0.6c0.7-0.3,1.4-0.8,2-1.3
		c0.1-0.1,0.2-0.2,0.3-0.3c0-0.1,0-0.1,0-0.2c0,0-0.1,0-0.1,0c-0.1,0-0.2,0.1-0.3,0.1c-1.1,0.6-2.2,1.2-3.4,1.7
		c-0.2,0.1-0.3,0.2-0.4,0.3c0,0.1,0,0.2,0,0.2c0,0,0.1,0.1,0.2,0.1C129.5,111.2,129.6,111.1,129.7,111.1L129.7,111.1z M129.7,82.6
		c2.6-0.9,5.1-1.6,7.7-1.9c0.7-0.1,1.3-0.2,2.1-0.3c-0.9-0.3-1.8-0.2-2.6-0.1c-1.7,0.2-3.4,0.7-5,1.2c-0.8,0.3-1.6,0.6-2.4,0.9
		c-0.2,0.1-0.4,0.2-0.6,0.3C129.3,82.8,129.5,82.6,129.7,82.6L129.7,82.6z M130.8,86c1.3-0.5,2.6-1.1,3.9-1.5c1-0.2,2.1-0.4,3.1-0.7
		c0.2-0.1,0.5-0.1,0.7-0.2c0-0.1,0.1-0.1,0.1-0.2c-0.1,0-0.1-0.2-0.1-0.2c-0.1,0-0.3,0-0.4,0c-0.4,0.1-0.9,0.2-1.4,0.3
		c-2.1,0.5-4.1,1.2-6,2.1c-0.4,0.2-0.8,0.3-1,0.8C130,86.4,130.4,86.2,130.8,86L130.8,86z M129.9,88c0.2-0.1,0.4-0.2,0.6-0.3
		c1.9-1,3.8-1.8,5.9-2.4c0.3-0.1,0.6-0.2,1-0.3c0,0,0-0.1,0-0.1s-0.1-0.1-0.1-0.1c-0.2,0-0.4,0-0.5,0.1c-0.3,0.1-0.6,0.2-0.9,0.2
		c-1.3,0.3-2.5,0.8-3.7,1.3c-0.6,0.3-1.2,0.6-1.8,1c-0.3,0.1-0.5,0.2-0.6,0.5c0,0,0,0.1,0,0.1c0,0,0,0,0,0S129.9,88.1,129.9,88
		L129.9,88z M129.9,83.2c0.4-0.1,0.9-0.2,1.3-0.3c1.6-0.6,3.3-1,5-1.3c0.6-0.1,1.2-0.2,1.9-0.3c0.1-0.1,0.2,0,0.2-0.2
		c0,0-0.1-0.1-0.2-0.1c-0.4,0-0.9,0-1.4,0.2c-1.1,0.2-2.2,0.4-3.3,0.8C132.2,82.1,131,82.6,129.9,83.2L129.9,83.2
		C129.9,83.2,129.9,83.2,129.9,83.2z M133.2,111.3c-0.4,0.3-0.8,0.5-1.5,0.6C132.2,111.4,132.7,111.3,133.2,111.3z M132.5,105.1
		L132.5,105.1c0.1-0.1,0.2-0.2,0.2-0.2c0-0.1,0.1-0.1,0.2-0.2c-0.1,0.1-0.1,0.1-0.2,0.2S132.6,105,132.5,105.1
		C132.5,105.1,132.5,105.1,132.5,105.1L132.5,105.1L132.5,105.1z M134.7,110.2c-0.4,0.5-0.9,0.8-1.4,1
		C133.6,110.8,134.1,110.5,134.7,110.2z M135,109.8c0.6-0.6,1.2-1.1,1.7-1.7c0.1-0.1,0.3-0.3,0.4-0.4c-0.5,1.2-1.2,2.1-2.4,2.4
		C134.8,110,134.9,109.9,135,109.8L135,109.8z M142,88.3c-0.1,0.1-0.1,0.1-0.2,0.2C141.8,88.5,141.9,88.4,142,88.3z"/>
	<path class="st1" d="M140.5,110.7c-0.8-0.5-1.4-1.1-1.7-2c-0.3-0.7-0.6-1.4-0.8-2.1c-0.4-1.5-0.4-3,0.5-4.4
		c0.4-0.6,0.8-1.2,1.2-1.8c0.4-0.6,1-1.2,1.6-1.6c0.3-0.2,0.5-0.3,0.7-0.5c0.6-0.5,1.4-0.6,2.1-0.8c0.3-0.1,0.5,0,0.8,0.2
		c0.2,0.1,0.2,0.3,0,0.4c-0.3,0.2-0.6,0.3-0.9,0.4c-0.5,0.3-1.1,0.6-1.5,1.1v0c0.3,0,0.6-0.2,0.8-0.3c0.4-0.2,0.7-0.3,1-0.4
		c-0.3,0.3-0.7,0.4-1,0.8c0.1,0.2,0.2,0.1,0.3,0c0.3-0.1,0.6-0.3,0.8-0.4c0.3-0.2,0.6-0.3,0.9-0.4c0.2-0.1,0.5-0.2,0.7,0
		c0.2,0.3,0.2,0.7-0.1,0.9c-0.1,0.1-0.3,0.2-0.5,0.3c-0.3,0.2-0.6,0.5-1,0.7c-0.3,0.2-0.5,0.5-0.7,0.7c-0.1,0.1-0.1,0.2-0.1,0.3
		c0,0.1,0.2,0.1,0.4,0c0.4-0.3,0.9-0.7,1.3-1c0.4-0.2,0.7-0.4,1.1-0.6c0.1,0.1,0,0.2-0.1,0.3c-0.4,0.3-0.7,0.6-1.1,0.9
		c-0.4,0.3-0.6,0.6-1,0.9c-0.2,0.2-0.4,0.5-0.5,0.8c-0.3,0.2-0.4,0.4-0.5,0.7v0c0.3-0.1,0.4-0.4,0.5-0.7c0.2-0.1,0.3-0.1,0.5-0.2v0
		c-0.3,0.6-0.8,1.1-1.2,1.6c-0.2,0.2-0.3,0.4-0.2,0.6c0.1,0.2,0.3,0.3,0.5,0.3c0.4,0,0.8,0,1.1-0.1c1.4-0.5,2.8-1,4.1-1.6
		c0.8-0.4,1.6-0.8,2.2-1.5c0.1-0.1,0.3-0.3,0.4-0.4c0.4-0.3,0.6-0.6,0.9-0.9c0.3-0.5,0.7-1,1-1.5c0.4-0.6,0.7-1.4,0.9-2.1
		c0.2-0.9,0.1-1.3-0.7-1.8c-0.7-0.4-1.3-0.7-2-0.9c-0.4-0.2-1-0.3-1.5-0.5c-1-0.3-2-0.8-2.9-1.2c-0.5-0.3-1-0.7-1.4-1.1
		c-0.4-0.5-0.8-0.9-1.1-1.4c-0.2-0.3-0.3-0.5-0.4-0.8c-0.1-0.3-0.1-0.6-0.2-0.9c-0.1-0.8-0.2-1.7-0.4-2.6c-0.2-0.8-0.1-1.5,0.1-2.3
		c0.1-0.4,0.3-0.7,0.6-1c0.3-0.4,0.6-0.7,0.9-1c0.4-0.5,0.9-0.9,1.6-1.1c0.5-0.2,1.1-0.4,1.5-0.8s0.9-0.5,1.4-0.6
		c0.5-0.2,1-0.4,1.4-0.6c0.5-0.2,1.1-0.1,1.6-0.2c0.5-0.2,1.1-0.3,1.5-0.5c0.8-0.3,1.6-0.4,2.4-0.4c0.6,0,1.1-0.1,1.7-0.1
		c0.8-0.1,1.5,0,2.2,0c0.2,0,0.4,0.1,0.5,0.2c0.8,0.5,1.4,1.1,1.7,2c0.1,0.4,0.3,0.9,0.6,1.3c0.4,0.7,0.6,1.6,0.5,2.4
		c0,0.3,0,0.5,0.1,0.8c0.1,0.3,0.1,0.5,0,0.8c-0.2,0.5-0.4,1.2-0.9,1.6c-0.2,0.2-0.4,0.4-0.6,0.6c-0.2,0.1-0.3,0.3-0.2,0.5
		c-0.3,0.3-0.6,0.7-0.9,1c-0.4,0.4-0.7,0.6-1.4,0.8c0.4-0.4,0.8-0.5,1-0.9c-0.3,0.1-0.6,0.2-0.8,0.3c-0.4,0.2-0.7,0.3-1.1,0.3
		c-0.3,0-0.4-0.2-0.3-0.5c0-0.1,0.1-0.2,0.2-0.3c0-0.1-0.1-0.1-0.1-0.1c-0.1,0-0.2,0-0.3,0c-0.4,0.1-0.6-0.1-0.7-0.5
		c-0.1-0.3,0-0.6,0.1-0.9c0-0.2,0.2-0.4,0-0.7v0c-0.1-0.4-0.3-0.8-0.3-1.2c0-0.3-0.1-0.5-0.5-0.4c-0.6,0.2-1.1,0.3-1.7,0.5
		c-1.3,0.5-2.7,1-3.9,1.8c-0.2,0.1-0.4,0.2-0.6,0.4c-0.2,0.1-0.1,0.3,0,0.4s0.2,0.2,0.4,0.2c0.6,0.4,1.2,0.7,1.8,1.1
		c1.4,0.9,2.4,2,3.2,3.4c0.5,0.9,1,1.9,1.4,2.8c0.6,1.1,0.8,2.3,1,3.5c0.1,0.8,0.3,1.7,0.3,2.6c0,1.2-0.1,2.3-0.7,3.3
		c-0.1,0.3-0.3,0.6-0.2,0.9c-0.1,0.3-0.3,0.5-0.6,0.7c-0.4,0.3-0.7,0.6-1,0.9c-1.3,1.3-2.8,2.5-4.6,3.3c-0.6,0.2-1.1,0.5-1.5,0.9
		c-0.4,0.2-0.7,0.4-1.1,0.4c-0.3,0-0.6,0.1-0.9,0.2c-0.2,0-0.4,0.1-0.5,0c-0.4-0.2-0.8-0.1-1.2,0c-0.4,0.1-0.8,0.1-1.1,0.1
		C143.6,112.2,141.9,111.7,140.5,110.7L140.5,110.7z M141.8,100.9c0.1-0.1,0.1-0.1,0.2-0.1C141.8,100.8,141.8,100.8,141.8,100.9
		C141.7,100.9,141.7,100.8,141.8,100.9L141.8,100.9z M144.1,103c0,0,0.1-0.1,0.2-0.1C144.3,102.9,144.2,103,144.1,103L144.1,103z
		 M144.6,98.8c-0.1,0.1-0.2,0.1-0.4,0.2C144.3,98.9,144.4,98.9,144.6,98.8z M144.5,102.7c0,0-0.1,0.1-0.2,0.2
		C144.3,102.8,144.4,102.7,144.5,102.7z M144.6,102.5L144.6,102.5c-0.1,0.1-0.1,0.1-0.1,0.2C144.5,102.6,144.6,102.6,144.6,102.5z
		 M144.9,98.7c-0.1,0.1-0.2,0.1-0.4,0.2C144.7,98.8,144.8,98.7,144.9,98.7z M144.8,102.3L144.8,102.3c-0.1,0.1-0.1,0.1-0.2,0.2
		C144.7,102.5,144.7,102.4,144.8,102.3L144.8,102.3z M145,98.6c0,0-0.1,0-0.1,0.1C144.9,98.6,145,98.6,145,98.6z M150.7,105.5
		c0.3-0.2,0.5-0.4,0.6-0.7l0-0.1v0c-0.3,0-0.5,0.1-0.8,0.2c-1.2,0.6-2.4,1.3-3.8,1.7c-0.1,0.1-0.2,0.1-0.4,0.2v0.1
		c0,0,0.1,0.1,0.1,0.1c0.1,0,0.2,0,0.3,0C148.2,106.9,149.6,106.4,150.7,105.5L150.7,105.5z M147.3,83.5c0,0,0.1-0.1,0.1-0.1
		c0.1-0.1,0.2-0.1,0.3-0.2c-0.1,0.1-0.2,0.1-0.3,0.2C147.4,83.4,147.4,83.4,147.3,83.5C147.2,83.4,147.2,83.5,147.3,83.5L147.3,83.5
		L147.3,83.5z M149.4,107.2c0.7-0.2,1.4-0.6,1.9-1.1c0-0.1,0.1-0.2,0.1-0.2c0-0.1-0.1-0.1-0.2,0c-0.9,0.4-1.8,0.9-2.7,1.4l0,0.1
		c0,0,0,0.1,0,0.1l0.1,0C148.9,107.4,149.2,107.3,149.4,107.2L149.4,107.2z M149.9,110.2c0.5-0.2,1-0.4,1.5-0.6
		c0.7-0.3,1.4-0.8,2-1.3c0.1-0.1,0.2-0.2,0.3-0.3c0-0.1,0-0.1,0-0.2c0,0-0.1,0-0.1,0c-0.1,0-0.2,0.1-0.3,0.1
		c-1.1,0.6-2.2,1.2-3.4,1.7c-0.2,0.1-0.3,0.2-0.4,0.3c0,0.1,0,0.2,0,0.2c0.1,0,0.1,0.1,0.2,0.1C149.7,110.3,149.8,110.2,149.9,110.2
		L149.9,110.2z M149.9,81.7c2.6-0.9,5.1-1.6,7.7-1.9c0.7-0.1,1.3-0.2,2.1-0.3c-0.9-0.3-1.8-0.2-2.6-0.1c-1.7,0.2-3.4,0.7-5,1.2
		c-0.8,0.3-1.6,0.6-2.4,0.9c-0.2,0.1-0.4,0.2-0.6,0.3C149.5,81.9,149.7,81.7,149.9,81.7L149.9,81.7z M151,85.1
		c1.3-0.5,2.6-1.1,3.9-1.5c1-0.2,2.1-0.4,3.1-0.7c0.2-0.1,0.5-0.1,0.7-0.2c0-0.1,0.1-0.1,0.1-0.2c0,0-0.1-0.2-0.1-0.2
		c-0.1,0-0.3,0-0.4,0c-0.4,0.1-0.9,0.2-1.4,0.3c-2.1,0.5-4.1,1.2-6,2.1c-0.4,0.2-0.8,0.3-1,0.8C150.2,85.5,150.6,85.3,151,85.1
		L151,85.1z M150.1,87.1c0.2-0.1,0.4-0.2,0.6-0.3c1.9-1,3.8-1.8,5.9-2.4c0.3-0.1,0.6-0.2,1-0.3c0,0,0-0.1,0-0.1s-0.1-0.1-0.1-0.1
		c-0.2,0-0.4,0-0.5,0.1c-0.3,0.1-0.6,0.2-0.9,0.2c-1.3,0.3-2.5,0.8-3.7,1.3c-0.6,0.3-1.2,0.6-1.8,1c-0.3,0.1-0.5,0.2-0.6,0.5
		c0,0,0,0.1,0,0.1c0,0,0,0,0,0S150.1,87.2,150.1,87.1L150.1,87.1z M150.1,82.3c0.4-0.1,0.9-0.2,1.3-0.3c1.6-0.6,3.3-1,5-1.3
		c0.6-0.1,1.2-0.2,1.9-0.3c0.1-0.1,0.2,0,0.2-0.2c0,0-0.1-0.1-0.2-0.1c-0.4,0-0.9,0-1.4,0.2c-1.1,0.2-2.2,0.4-3.3,0.8
		C152.4,81.2,151.2,81.7,150.1,82.3L150.1,82.3L150.1,82.3L150.1,82.3z M153.4,110.4c-0.4,0.3-0.8,0.5-1.5,0.6
		C152.4,110.5,152.9,110.4,153.4,110.4z M152.7,104.2L152.7,104.2c0.1-0.1,0.2-0.2,0.2-0.2s0.1-0.1,0.2-0.2
		c-0.1,0.1-0.1,0.1-0.2,0.2S152.8,104.1,152.7,104.2C152.7,104.2,152.7,104.2,152.7,104.2L152.7,104.2L152.7,104.2z M154.9,109.3
		c-0.4,0.5-0.9,0.8-1.4,1C153.8,109.8,154.3,109.5,154.9,109.3z M155.2,108.9c0.6-0.6,1.2-1.1,1.7-1.7c0.1-0.1,0.3-0.3,0.4-0.4
		c-0.5,1.2-1.2,2.1-2.4,2.4C155,109.1,155.1,109,155.2,108.9L155.2,108.9z M162.2,87.4c-0.1,0.1-0.1,0.1-0.2,0.2
		C162,87.5,162.1,87.5,162.2,87.4z"/>
	<path class="st1" d="M159.6,107.7c-0.5,0-0.7-0.3-0.9-0.6c-0.2-0.3-0.4-0.5-0.6-0.7c-0.5-0.6-0.7-1.2-0.5-2c0.3-1.1,0.5-2.2,1-3.2
		c0.2-0.3,0.2-0.6,0.4-0.9c0.3-0.8,0.6-1.7,1-2.4c0.4-0.9,0.8-1.8,1.2-2.8c0.3-0.9,0.8-1.8,1.3-2.7c0.6-1.1,1.1-2.3,1.6-3.4
		c0.4-0.9,1-1.8,1.5-2.7c0.3-0.6,0.6-1.2,0.9-1.8c0.6-1,1.3-2,2.1-2.9c0.4-0.5,0.8-1,1.1-1.4c0.6-0.9,1.4-1.6,2.2-2.3
		c0.4-0.4,0.9-0.6,1.4-0.8c0.4-0.2,0.8,0,1,0.3c0.1,0.2,0.3,0.4,0.5,0.6c0.4,0.3,0.6,0.7,0.7,1.2c0.1,0.3,0.2,0.5,0.4,0.7
		c0.4,0.3,0.5,0.7,0.6,1.1c0.1,0.5,0.2,0.9,0.4,1.3c0.1,0.7,0.2,1.3,0.2,1.9c-0.1,1.5-0.1,3.1-0.2,4.6c0,0.4-0.1,0.7-0.2,1.1
		c-0.1,1.5-0.4,2.9-0.5,4.4c0,0.8-0.1,1.5-0.2,2.3c-0.1,0.8-0.2,1.7-0.2,2.5c0,0.1,0,0.3,0,0.4c-0.2,0.8-0.1,1.7-0.3,2.6
		c-0.2,1-0.1,1.9-0.2,3v0.4c0,0.5-0.2,0.9-0.6,1.1c-0.2,0.1-0.4,0.3-0.6,0.4c-0.1,0.1-0.4,0.2-0.4,0c-0.1-0.3-0.4-0.4-0.7-0.4
		c-0.3,0.1-0.5-0.1-0.7-0.4c-0.1-0.2-0.3-0.4-0.4-0.7c-0.1-0.3-0.3-0.5-0.5-0.8c-0.5-0.6-0.7-1.2-0.8-1.9c0-0.7-0.1-1.3-0.1-1.9
		c-0.1-1.2-0.2-1.3-1.3-0.9c-0.5,0.2-0.9,0.3-1.4,0.4c-0.2-0.1-0.4,0-0.5,0.1c-0.4,0.2-0.8,0.2-1.1,0.3c-0.7,0.1-1.3,0.2-2,0.3
		c-0.3,0-0.5,0.1-0.8,0.2c-0.2,0-0.3,0.1-0.4,0.2c-0.1,0.2-0.3,0.4-0.4,0.6c0,0.1-0.1,0.2,0,0.3c0.3,0.2,0.1,0.4,0,0.5
		c-0.4,0.2-0.6,0.5-0.6,0.9c0,0.1-0.1,0.2-0.1,0.4h0c0.1-0.1,0.1-0.2,0.2-0.4c0.1-0.1,0.2-0.1,0.4-0.2c-0.2,0.4-0.3,0.9-0.6,1.4
		c-0.1,0-0.1,0-0.2,0l0,0.1l0-0.1c0,0,0.1,0,0.2,0c0,0.3-0.2,0.6-0.3,0.9c-0.1,0.2-0.1,0.2-0.1-0.1c0.1-0.4,0,0-0.1,0
		c0.1,0.1,0.1,0.1,0.2,0.1c0,0.1-0.1,0.3-0.2,0.4c-0.2,0.3-0.3,0.6-0.4,0.9c-0.1,0.5-0.6,0.8-1.1,0.6
		C159.9,107.9,159.7,107.7,159.6,107.7L159.6,107.7z M162.7,103.6L162.7,103.6L162.7,103.6z M163.5,101.9c0-0.1,0.1-0.2,0.2-0.3
		C163.6,101.7,163.5,101.8,163.5,101.9L163.5,101.9z M163.5,101.9L163.5,101.9L163.5,101.9z M163.8,101.2L163.8,101.2
		c-0.1,0.1-0.1,0.2-0.1,0.4C163.7,101.5,163.7,101.4,163.8,101.2z M170.4,94.9c0.3-0.1,0.4-0.2,0.5-0.5c0.1-0.4,0.2-0.9,0.2-1.3
		c0.1-1.2,0.1-2.4,0.3-3.6c0-0.4,0.1-0.9-0.2-1.3c-0.1-0.1-0.1-0.3,0-0.4c0,0-0.1-0.1-0.1-0.1c0,0-0.1,0-0.1,0
		c-0.3,0.4-0.5,0.8-0.8,1.1c0,0.1,0,0.1,0,0.2c0,0,0.1,0,0.1,0c0.1-0.1,0.2-0.1,0.2,0c0,0,0.1,0.1,0,0.1c-0.3,0.5-0.6,1-0.9,1.4
		c-0.1,0.1-0.3,0.3-0.4,0.4c0.1-0.4,0.3-0.8,0.5-1.2v0c-0.7,0.7-1.1,1.5-1.4,2.4c-0.6,0.7-1,1.4-1.3,2.2c-0.2,0.2-0.4,0.4-0.4,0.7
		c0,0.1,0.1,0.1,0.2,0.1c0-0.1,0.1-0.1,0.2-0.1c0.2,0.3,0.6,0.4,1,0.3C168.8,95.2,169.6,95,170.4,94.9L170.4,94.9z M168.8,92
		c0.2-0.4,0.3-0.8,0.5-1.1c-0.2,0.2-0.4,0.4-0.5,0.6c-0.1,0.2-0.3,0.4-0.5,0.6c-0.2,0.8-0.6,1.6-1.3,2.2c0.1,0.1,0.1,0.2,0.2,0.3
		C167.8,93.9,168.3,93,168.8,92L168.8,92z M167.2,94.7c0,0.1-0.1,0.2-0.2,0.4C167.1,94.9,167.1,94.8,167.2,94.7z M168.2,100.4
		L168.2,100.4C168.1,100.4,168.1,100.4,168.2,100.4z M172.8,79.3c0-0.1,0.1-0.1,0.1-0.2c0.1-0.1,0.1-0.1,0.2-0.2c0-0.1,0,0,0,0
		c0,0.1-0.1,0.1-0.2,0.2C172.9,79.2,172.8,79.2,172.8,79.3c-0.1,0-0.1,0.1-0.2,0.1C172.7,79.4,172.7,79.4,172.8,79.3z M174.8,106.1
		c0,0-0.1-0.1-0.1,0c-0.1,0-0.1,0.1-0.1,0.2c0,0,0.1,0,0.1,0C174.8,106.2,174.8,106.2,174.8,106.1z M174.1,77.9L174.1,77.9
		L174.1,77.9z"/>
</g>
<path class="st1" d="M114.7,184.7c-5.1,0-10.4-0.6-15.9-1.8c-29-6.3-48.8-14.9-62.5-26.9c-15.9-14.1-23.1-32.9-22.1-57.7
	c1.1-25.2,10-46.6,25.6-61.9c7.5-7.3,16.4-13,26.4-16.9c10.1-3.9,21-5.9,32.6-5.9c27.1,0,52.8,10.8,68.6,28.8
	c13.4,15.3,18.9,34.6,16.1,55.8c-2.3,17.1-6.4,32.3-12.3,45c-6.4,13.9-14.7,24.5-24.6,31.5C137.3,181.4,126.6,184.7,114.7,184.7
	L114.7,184.7z M98.9,14.4c-11.5,0-22.4,2-32.4,5.8c-9.9,3.8-18.7,9.5-26.2,16.7C24.8,52,16,73.3,14.9,98.3
	c-1.1,24.5,6.1,43.2,21.9,57.2c13.6,12,33.3,20.5,62.2,26.8c18.2,4,34.1,1.3,47.3-7.9c9.9-6.9,18.1-17.4,24.4-31.2
	c5.8-12.7,9.9-27.8,12.2-44.8l0.3,0l-0.3,0c2.8-21.1-2.7-40.2-15.9-55.3C151.3,25,125.8,14.3,98.9,14.4L98.9,14.4z"/>
<g>
	<path class="st1" d="M53.3,52.6h9.2v2.9H57v2.1h5v2.9h-5v2h5.8v2.9h-9.5C53.3,65.4,53.3,52.6,53.3,52.6z"/>
	<path class="st1" d="M67.2,55.4v5c0,0.8,0.1,1.3,0.4,1.7c0.3,0.4,0.7,0.6,1.2,0.6s1.1-0.2,1.4-0.6c0.3-0.4,0.5-1,0.5-1.7v-5h3.4v10
		h-3.3l-0.2-1.2c-0.2,0.4-0.6,0.8-1.2,1c-0.5,0.2-1.2,0.4-1.9,0.4c-1.4,0-2.4-0.4-3-1.3c-0.6-0.9-0.9-2.2-0.9-3.9v-5L67.2,55.4
		L67.2,55.4z"/>
	<path class="st1" d="M88.3,58.2l-3.4,0.2c0-0.2-0.1-0.5-0.3-0.6c-0.2-0.2-0.4-0.3-0.7-0.3c-0.3,0-0.6,0.1-0.8,0.2
		c-0.2,0.1-0.3,0.3-0.3,0.5s0.1,0.4,0.3,0.5c0.2,0.1,0.5,0.2,0.9,0.3c0.7,0.2,1.3,0.3,1.7,0.5s0.9,0.3,1.3,0.5
		c0.4,0.2,0.7,0.4,0.9,0.6c0.2,0.2,0.4,0.5,0.5,0.7s0.2,0.6,0.2,1c0,1.1-0.5,1.9-1.2,2.4c-0.8,0.6-1.9,0.8-3.5,0.8s-2.7-0.3-3.5-0.8
		s-1.3-1.3-1.3-2.4l3.4-0.2c0,0.3,0.2,0.6,0.4,0.8s0.6,0.3,0.9,0.3s0.7-0.1,0.9-0.2s0.4-0.3,0.4-0.6s-0.2-0.5-0.6-0.7
		c-0.4-0.2-0.8-0.4-1.4-0.5c-0.5-0.1-0.9-0.2-1.3-0.3c-0.3-0.1-0.7-0.2-1-0.3s-0.6-0.3-0.8-0.4c-0.2-0.1-0.3-0.3-0.5-0.5
		s-0.2-0.4-0.3-0.7s-0.1-0.5-0.1-0.9c0-1,0.4-1.7,1.2-2.2c0.8-0.5,1.9-0.7,3.4-0.7c1.4,0,2.4,0.3,3.2,0.8
		C87.9,56.5,88.3,57.3,88.3,58.2L88.3,58.2z"/>
	<path class="st1" d="M96.7,65.3c-0.7,0.2-1.4,0.3-2.1,0.3s-1.5-0.1-2.1-0.3c-0.7-0.2-1.3-0.6-1.8-1c-0.5-0.4-0.9-1-1.2-1.6
		S89,61.2,89,60.4s0.2-1.5,0.4-2.2c0.3-0.7,0.7-1.2,1.2-1.6s1.1-0.8,1.8-1c0.7-0.2,1.4-0.3,2.1-0.3s1.5,0.1,2.1,0.3s1.3,0.6,1.8,1
		c0.5,0.4,0.9,1,1.2,1.6c0.3,0.7,0.4,1.4,0.4,2.2s-0.2,1.5-0.4,2.2c-0.3,0.7-0.7,1.2-1.2,1.6S97.4,65,96.7,65.3z M93.1,62.1
		c0.4,0.4,0.9,0.6,1.5,0.6s1.1-0.2,1.5-0.6s0.6-1,0.6-1.7s-0.2-1.2-0.6-1.7s-0.9-0.6-1.5-0.6s-1.1,0.2-1.5,0.6s-0.6,1-0.6,1.7
		S92.7,61.7,93.1,62.1z"/>
	<path class="st1" d="M104.4,55.4v5c0,0.8,0.1,1.3,0.4,1.7c0.3,0.4,0.7,0.6,1.2,0.6s1.1-0.2,1.4-0.6c0.3-0.4,0.5-1,0.5-1.7v-5h3.4
		v10H108l-0.2-1.2c-0.2,0.4-0.6,0.8-1.2,1c-0.5,0.2-1.2,0.4-1.9,0.4c-1.4,0-2.4-0.4-3-1.3c-0.6-0.9-0.9-2.2-0.9-3.9v-5L104.4,55.4
		L104.4,55.4z"/>
	<path class="st1" d="M120,55.4v5c0,0.8,0.1,1.3,0.4,1.7c0.3,0.4,0.7,0.6,1.2,0.6s1.1-0.2,1.4-0.6c0.3-0.4,0.5-1,0.5-1.7v-5h3.4v10
		h-3.3l-0.2-1.2c-0.2,0.4-0.6,0.8-1.2,1c-0.5,0.2-1.2,0.4-1.9,0.4c-1.4,0-2.4-0.4-3-1.3c-0.6-0.9-0.9-2.2-0.9-3.9v-5L120,55.4
		L120,55.4z"/>
	<path class="st1" d="M141.4,55.2c0.6,0,1.1,0.1,1.5,0.2c0.4,0.2,0.8,0.4,1.1,0.7c0.3,0.3,0.5,0.7,0.7,1.1c0.2,0.4,0.3,0.9,0.4,1.4
		c0.1,0.5,0.1,1.1,0.1,1.8v5h-3.4v-5c0-1.5-0.5-2.3-1.6-2.3c-0.6,0-1,0.2-1.3,0.6c-0.3,0.4-0.5,1-0.5,1.7v5h-3.4v-5
		c0-1.5-0.5-2.3-1.6-2.3c-0.6,0-1,0.2-1.3,0.6c-0.3,0.4-0.5,1-0.5,1.7v5h-3.4v-10h3.3l0.2,1.2c0.5-0.9,1.5-1.4,3-1.4
		c1.6,0,2.7,0.7,3.2,2C138.6,55.9,139.8,55.2,141.4,55.2L141.4,55.2z"/>
</g>
</svg>
